<?xml version="1.0" encoding="UTF-8" standalone="no"?>
<!-- Created with Inkscape (http://www.inkscape.org/) -->

<svg
   xmlns:dc="http://purl.org/dc/elements/1.1/"
   xmlns:cc="http://creativecommons.org/ns#"
   xmlns:rdf="http://www.w3.org/1999/02/22-rdf-syntax-ns#"
   xmlns:svg="http://www.w3.org/2000/svg"
   xmlns="http://www.w3.org/2000/svg"
   xmlns:sodipodi="http://sodipodi.sourceforge.net/DTD/sodipodi-0.dtd"
   xmlns:inkscape="http://www.inkscape.org/namespaces/inkscape"
   width="288.0881mm"
   height="72.355949mm"
   viewBox="0 0 1020.7846 256.37935"
   id="svg2"
   version="1.1"
   inkscape:version="0.91 r13725"
   sodipodi:docname="incubator.svg">
  <defs
     id="defs4" />
  <sodipodi:namedview
     id="base"
     pagecolor="#ffffff"
     bordercolor="#666666"
     borderopacity="1.0"
     inkscape:pageopacity="0.0"
     inkscape:pageshadow="2"
     inkscape:zoom="0.78"
     inkscape:cx="394.79332"
     inkscape:cy="86.792158"
     inkscape:document-units="px"
     inkscape:current-layer="text4136"
     showgrid="false"
     inkscape:window-width="1535"
     inkscape:window-height="876"
     inkscape:window-x="65"
     inkscape:window-y="24"
     inkscape:window-maximized="1"
     fit-margin-top="5"
     fit-margin-left="5"
     fit-margin-bottom="5"
     fit-margin-right="5" />
  <metadata
     id="metadata7">
    <rdf:RDF>
      <cc:Work
         rdf:about="">
        <dc:format>image/svg+xml</dc:format>
        <dc:type
           rdf:resource="http://purl.org/dc/dcmitype/StillImage" />
        <dc:title />
      </cc:Work>
    </rdf:RDF>
  </metadata>
  <g
     inkscape:label="Layer 1"
     inkscape:groupmode="layer"
     id="layer1"
     transform="translate(-54.654268,-97.060717)">
    <g
       style="font-style:normal;font-variant:normal;font-weight:normal;font-stretch:normal;font-size:40px;line-height:125%;font-family:'Transport Heavy';-inkscape-font-specification:'Transport Heavy, ';letter-spacing:0px;word-spacing:0px;fill:#000000;fill-opacity:1;stroke:none;stroke-width:1px;stroke-linecap:butt;stroke-linejoin:miter;stroke-opacity:1"
       id="text4136">
      <path
         d="m 74.079788,282.43985 0.610352,0 0.488281,0 2.197266,0 0.488281,0 0.488281,0 0.488281,0 2.075196,0 0.366211,0 1.464843,0 0.366211,0 0.366211,0 0.610352,0 0.366211,0 0.488281,0 0.366211,0 2.441406,0 q 13.061527,-0.88501 16.235347,7.8125 2.31934,9.00269 -4.760737,13.67187 5.798337,1.3733 7.324217,6.5918 2.92969,12.63428 -7.934569,17.7002 l -0.366211,0 -0.854492,0.36621 -0.366211,0 q -1.12915,0.45776 -2.075195,0.48828 -0.976563,0 -1.708985,0.12207 l -0.366211,0 -0.610351,0 -0.366211,0 -0.488281,0 -0.366211,0 -2.441407,0 -2.075195,0 -0.366211,0 -1.464844,0 -0.488281,0 -0.366211,0 -2.441406,0 -0.488281,0 -0.366211,0 -2.197266,0 -1.586914,0 -0.488281,0 -2.075195,0 -0.366211,0 -1.464844,0 0,-0.48828 0,-2.19727 0,-0.97656 0,-0.97656 0,-0.36621 0,-0.48828 0,-2.19727 0,-0.36621 0,-2.44141 0,-0.97656 0,-0.48828 0,-2.19727 0,-0.36621 0,-0.36621 0,-3.78418 0,-0.85449 0,-0.36621 0,-0.48828 0,-2.19727 0,-1.70898 0,-0.36621 0,-0.61036 0,-0.36621 0,-0.48828 0,-0.36621 0,-2.4414 0,-2.0752 0,-0.36621 0,-1.46484 0,-1.58692 0,-0.48828 0,-2.0752 0,-0.36621 0,-1.46484 0,-1.34277 0,-0.61035 0,-1.58692 0,-0.48828 0,-2.0752 0,-0.36621 0,-1.46484 1.708984,0 z m 6.469727,18.67676 0.366211,0 0.488281,0 2.197266,0 0.366211,0 2.197265,0 1.586914,0 0.488281,0 2.075196,0 0.976562,0 0.854492,0 q 1.281739,-0.18311 2.075196,-0.48828 3.417969,-2.44141 3.051758,-6.22559 -0.88501,-2.86865 -3.295899,-4.27246 l -1.464844,-0.36621 -0.732421,-0.12207 -0.610352,0 -0.732422,0 -0.488281,0 -2.197266,0 -1.342773,0 -0.488281,0 -0.488282,0 -0.488281,0 -0.488281,0 -2.075196,0 -0.36621,0 -1.464844,0 0,11.47461 z m 0,20.75195 0.488281,0 0.732422,0 0.488281,0 0.488281,0 1.586914,0 0.488282,0 2.197265,0 1.342774,0 0.488281,0 0.366211,0 0.366211,0 0.366211,0 0.488281,0 0.366211,0 0.488281,0 0.366211,0 2.685547,-0.24414 q 6.53076,-2.7771 5.004883,-9.15527 -1.281738,-3.20435 -4.02832,-4.5166 -1.617432,-0.42725 -2.685547,-0.48829 l -0.366211,0 -1.586914,0 -3.78418,0 -1.708984,0 -0.366211,0 -0.610352,0 -0.366211,0 -0.488281,0 -0.366211,0 -2.441406,0 0,14.4043 z"
         style="font-style:normal;font-variant:normal;font-weight:normal;font-stretch:normal;font-size:62.5px;font-family:Transport;-inkscape-font-specification:Transport"
         id="path4157" />
      <path
         d="m 121.44307,282.56192 2.19727,0 0.48828,0 0.48828,0 0.48828,0 2.07519,0 0.97657,0 0.85449,0 0,46.63086 -0.48828,0 -2.19727,0 -0.48828,0 -0.48828,0 -0.48828,0 -2.0752,0 -0.36621,0 -1.46484,0 0,-0.36621 0,-0.48828 0,-0.36621 0,-0.48828 0,-2.19727 0,-0.97656 0,-0.97657 0,-0.36621 0,-2.4414 0,-0.48828 0,-0.61036 0,-0.48828 0,-0.61035 0,-1.58691 0,-0.48828 0,-2.0752 0,-0.36621 0,-1.46484 0,-0.48828 0,-0.61036 0,-1.58691 0,-0.48828 0,-2.0752 0,-0.36621 0,-1.46484 0,-0.85449 0,-0.97657 0,-0.97656 0,-0.97656 0,-0.36621 0,-0.36621 0,-3.78418 0,-0.8545 0,-0.73242 0,-0.85449 0,-0.73242 0,-0.61035 0,-0.73242 0,-0.48829 0,-2.19726 0,-1.34277 0,-0.48829 0,-0.48828 0,-0.48828 0,-0.48828 0,-2.0752 0,-0.36621 0,-1.46484 0.48828,0 z"
         style="font-style:normal;font-variant:normal;font-weight:normal;font-stretch:normal;font-size:62.5px;font-family:Transport;-inkscape-font-specification:Transport"
         id="path4159" />
      <path
         d="m 162.67232,280.97501 1.34277,0 0.48828,0 0.48828,0.12207 0.36621,0 q 0.88501,0 1.46485,0.12207 l 0.73242,0 q 1.34277,0.39673 2.31934,0.36621 14.67895,5.64575 15.25879,22.21679 1.03759,18.24952 -13.1836,25.14649 -14.28223,4.88281 -23.92578,-4.63867 -5.85937,-7.1106 -6.10352,-15.38086 -0.12207,-0.42725 -0.12207,-0.85449 0,-0.61036 -0.12207,-0.97657 l 0,-0.36621 0,-0.36621 0,-0.36621 0,-0.36621 0,-0.36621 0.12207,-1.09863 0,-1.70899 0.12207,-0.48828 0,-0.36621 0.12207,-0.36621 q 0.0916,-1.92261 0.61036,-3.2959 4.08935,-16.02173 19.53125,-16.96777 l 0.48828,0 z m -0.97656,7.20214 q -13.51929,2.62452 -11.84083,20.75196 0.70191,9.88769 8.54493,13.42773 0.30517,0.0305 0.48828,0.12207 l 3.05176,0.73242 q 14.80102,-0.30517 15.01464,-15.74707 1.22071,-19.28711 -15.25878,-19.28711 z"
         style="font-style:normal;font-variant:normal;font-weight:normal;font-stretch:normal;font-size:62.5px;font-family:Transport;-inkscape-font-specification:Transport"
         id="path4161" />
      <path
         d="m 197.12666,282.43985 2.19727,0 0.48828,0 0.48828,0 0.48828,0 2.0752,0 0.97656,0 0.85449,0 0,39.42871 0.85449,0 0.36622,0 0.36621,0 1.58691,0 0.36621,0 0.48828,0 0.36621,0 0.61036,0 0.36621,0 0.48828,0 0.36621,0 2.4414,0 0.48829,0 0.48828,0 0.36621,0 2.19726,0 1.58692,0 0.48828,0 2.07519,0 0.36622,0 1.46484,0 0,7.20215 -0.36621,0 -0.48828,0 -0.36621,0 -0.48829,0 -2.19726,0 -0.97656,0 -2.44141,0 -0.36621,0 -0.36621,0 -3.78418,0 -0.85449,0 -0.73243,0 -0.85449,0 -0.73242,0 -0.61035,0 -0.73242,0 -0.48828,0 -2.19727,0 -1.34277,0 -0.48828,0 -0.48829,0 -0.48828,0 -0.48828,0 -2.07519,0 -0.36621,0 -1.46485,0 0,-0.36621 0,-0.48828 0,-0.36621 0,-0.48829 0,-2.19726 0,-0.97656 0,-0.97657 0,-0.36621 0,-2.4414 0,-0.48828 0,-0.61036 0,-0.48828 0,-0.61035 0,-1.58691 0,-0.48828 0,-2.0752 0,-0.36621 0,-1.46484 0,-0.48829 0,-0.61035 0,-1.58691 0,-0.48828 0,-2.0752 0,-0.36621 0,-1.46484 0,-0.85449 0,-0.97657 0,-0.97656 0,-0.97656 0,-0.36621 0,-0.36621 0,-3.78418 0,-0.8545 0,-0.73242 0,-0.85449 0,-0.73242 0,-0.61035 0,-0.73242 0,-0.48829 0,-2.19726 0,-1.34278 0,-0.48828 0,-0.48828 0,-0.48828 0,-0.48828 0,-2.0752 0,-0.36621 0,-1.46484 0.48828,0 z"
         style="font-style:normal;font-variant:normal;font-weight:normal;font-stretch:normal;font-size:62.5px;font-family:Transport;-inkscape-font-specification:Transport"
         id="path4163" />
      <path
         d="m 249.70845,280.97501 1.34277,0 0.48829,0 0.48828,0.12207 0.36621,0 q 0.88501,0 1.46484,0.12207 l 0.73242,0 q 1.34278,0.39673 2.31934,0.36621 14.67895,5.64575 15.25879,22.21679 1.0376,18.24952 -13.1836,25.14649 -14.28222,4.88281 -23.92578,-4.63867 -5.85937,-7.1106 -6.10351,-15.38086 -0.12207,-0.42725 -0.12207,-0.85449 0,-0.61036 -0.12207,-0.97657 l 0,-0.36621 0,-0.36621 0,-0.36621 0,-0.36621 0,-0.36621 0.12207,-1.09863 0,-1.70899 0.12207,-0.48828 0,-0.36621 0.12207,-0.36621 q 0.0915,-1.92261 0.61035,-3.2959 4.08935,-16.02173 19.53125,-16.96777 l 0.48828,0 z m -0.97656,7.20214 q -13.51929,2.62452 -11.84082,20.75196 0.7019,9.88769 8.54492,13.42773 0.30518,0.0305 0.48828,0.12207 l 3.05176,0.73242 q 14.80102,-0.30517 15.01465,-15.74707 1.2207,-19.28711 -15.25879,-19.28711 z"
         style="font-style:normal;font-variant:normal;font-weight:normal;font-stretch:normal;font-size:62.5px;font-family:Transport;-inkscape-font-specification:Transport"
         id="path4165" />
      <path
         d="m 302.32076,281.09708 q 14.80102,-0.79346 20.75195,11.10839 l -0.85449,0.36622 q -0.67139,0.45776 -1.22071,0.61035 -0.12207,0.21362 -0.24414,0.24414 l -0.36621,0.12207 -0.24414,0.24414 -0.24414,0.12207 -0.73242,0.24414 -0.12207,0.24414 -1.46485,0.61035 q -0.67138,0.5188 -1.2207,0.61035 -0.36621,-0.61035 -0.48828,-1.09863 -0.15259,-0.12207 -0.12207,-0.24414 l -0.24414,-0.12207 -1.09863,-1.70898 q -9.42994,-7.84302 -18.55469,-1.09864 l -0.73242,0.48828 q -0.12207,0.21363 -0.24414,0.24414 -0.12207,0.21363 -0.24414,0.24415 l -0.24415,0.36621 -0.24414,0.12207 -0.12207,0.24414 q -0.67138,1.09863 -1.2207,1.70898 -3.96728,11.74927 0,22.09473 l 0.24414,0.12207 q 0.85449,1.61743 1.95313,2.56347 6.65283,5.67627 14.28222,2.80762 8.1482,-3.14331 6.71387,-12.3291 l -0.73242,0 -0.85449,0 -1.58692,0 -3.78418,0 -1.70898,0 -0.36621,0 -0.61035,0 -0.36622,0 -0.48828,0 -0.36621,0 -2.4414,0 0,-1.34277 0,-0.48828 0,-0.48829 0,-0.48828 0,-0.48828 0,-2.07519 0,-0.36621 0,-1.46485 0.48828,0 2.19726,0 2.0752,0 0.36621,0 1.46484,0 1.58692,0 0.48828,0 2.07519,0 0.36621,0 1.46485,0 1.34277,0 0.61035,0 1.58692,0 0.48828,0 2.07519,0 0.36621,0 1.46485,0 0,26.36719 -1.34277,0 -0.48829,0 -0.48828,0 -0.48828,0 -0.48828,0 -2.0752,0 -0.36621,0 -1.46484,0 q 0.0915,-2.34985 -0.12207,-3.78418 -1.52588,2.41089 -3.66211,3.66211 l -0.48828,0.12207 q -1.31226,0.82397 -2.92969,1.09863 -11.77978,1.77002 -19.16504,-5.49316 -5.64575,-5.82886 -6.34765,-13.1836 -3.32642,-22.82714 14.52636,-29.90722 l 1.22071,-0.12207 0.36621,-0.12207 0.36621,0 0.36621,-0.12207 q 1.31226,-0.061 2.19727,-0.24414 z"
         style="font-style:normal;font-variant:normal;font-weight:normal;font-stretch:normal;font-size:62.5px;font-family:Transport;-inkscape-font-specification:Transport"
         id="path4167" />
      <path
         d="m 335.43233,282.56192 2.19726,0 0.48828,0 0.48829,0 0.48828,0 2.07519,0 0.97656,0 0.8545,0 0,46.63086 -0.48828,0 -2.19727,0 -0.48828,0 -0.48828,0 -0.48828,0 -2.0752,0 -0.36621,0 -1.46484,0 0,-0.36621 0,-0.48828 0,-0.36621 0,-0.48828 0,-2.19727 0,-0.97656 0,-0.97657 0,-0.36621 0,-2.4414 0,-0.48828 0,-0.61036 0,-0.48828 0,-0.61035 0,-1.58691 0,-0.48828 0,-2.0752 0,-0.36621 0,-1.46484 0,-0.48828 0,-0.61036 0,-1.58691 0,-0.48828 0,-2.0752 0,-0.36621 0,-1.46484 0,-0.85449 0,-0.97657 0,-0.97656 0,-0.97656 0,-0.36621 0,-0.36621 0,-3.78418 0,-0.8545 0,-0.73242 0,-0.85449 0,-0.73242 0,-0.61035 0,-0.73242 0,-0.48829 0,-2.19726 0,-1.34277 0,-0.48829 0,-0.48828 0,-0.48828 0,-0.48828 0,-2.0752 0,-0.36621 0,-1.46484 0.48828,0 z"
         style="font-style:normal;font-variant:normal;font-weight:normal;font-stretch:normal;font-size:62.5px;font-family:Transport;-inkscape-font-specification:Transport"
         id="path4169" />
      <path
         d="m 376.75313,281.09708 q 16.8457,-0.64087 21.72851,14.03808 -0.12207,0.24414 -0.36621,0.36621 l -0.61035,0.12207 -0.48828,0.12207 -0.48828,0 q -0.33569,0.12207 -0.61035,0.12207 -0.70191,0.27466 -1.22071,0.24414 -0.1831,0.12208 -0.36621,0.12208 l -0.48828,0.12207 -0.85449,0.12207 -0.24414,0.12207 -1.95313,0.36621 q -4.11987,-10.80323 -15.38086,-8.17871 -0.1831,0.12207 -0.36621,0.12207 l -0.85449,0.36621 q -0.67139,0.36621 -1.2207,0.48828 -0.12207,0.21362 -0.24414,0.24414 l -0.36621,0.12207 -0.36621,0.24414 -0.24414,0.24414 -0.36622,0.12207 q -1.12915,1.15967 -1.95312,1.70899 l -0.12207,0.36621 -0.61035,0.61035 -0.12207,0.36621 -0.24414,0.12207 q -0.45777,1.15967 -0.97657,1.83105 -2.7771,9.27735 -0.61035,17.57813 2.41089,9.06372 11.35254,9.88769 9.8877,0.061 12.69531,-8.66699 l 0.61036,0.12207 q 0.73242,0.21363 1.34277,0.24414 l 0.24414,0.12207 1.95312,0.36621 0.48829,0.12207 0.85449,0.12207 2.19726,0.48829 q -4.36401,13.06152 -17.08984,14.28222 -13.67188,0.91553 -20.1416,-9.88769 -6.16455,-12.6648 -1.95313,-24.90235 4.63868,-13.09204 17.45606,-14.52636 z"
         style="font-style:normal;font-variant:normal;font-weight:normal;font-stretch:normal;font-size:62.5px;font-family:Transport;-inkscape-font-specification:Transport"
         id="path4171" />
      <path
         d="m 417.79927,282.43985 2.19727,0 1.34277,0 0.48828,0 0.48828,0 0.48828,0 0.48828,0 2.0752,0 0.36621,0 1.46484,0 0.24415,0.97656 q 0.21362,0.42725 0.24414,0.85449 l 0.24414,0.48829 0.36621,1.2207 0.12207,0.24414 0.12207,0.48828 0.12207,0.36621 0.12207,0.48828 0.36621,0.8545 0.12207,0.24414 0,0.36621 q 0.45776,0.88501 0.61035,1.58691 l 0.12207,0.48828 0.12207,0.24414 0,0.36621 q 0.45777,0.88501 0.61035,1.58692 l 0.24414,0.97656 q 0.42725,0.73242 0.48829,1.46484 l 0.36621,0.8545 0.24414,0.97656 0.24414,0.85449 q 0.12207,0.18311 0.12207,0.36621 l 0.24414,0.36621 0.12207,0.48828 q 0.1831,0.61036 0.36621,0.97657 l 0,0.36621 q 0.57983,1.15967 0.73242,2.19726 0.18311,0.36621 0.24414,0.73242 0.18311,0.36622 0.24414,0.73243 l 0.24414,0.73242 0.24414,0.73242 0.12207,0.24414 0.12208,0.48828 0.12207,0.36621 0.12207,0.48828 0.36621,0.8545 0.12207,0.24414 0,0.36621 q 0.45776,0.88501 0.61035,1.58691 l 0.12207,0.73242 q 0.45776,0.91553 0.61035,1.70899 0.57983,1.34277 0.73242,2.31933 0.18311,0.36622 0.24414,0.73243 l 0.36621,0.73242 0.24414,0.73242 q 0.12207,0.7019 0.36622,1.2207 l 0.24414,1.09864 0.24414,0.48828 0.12207,0.24414 0.24414,1.09863 0.24414,0.48828 0.12207,0.48828 q 0.67139,1.61743 0.85449,2.80762 l 0.24414,0.36621 0,0.36621 q 0.12207,0.18311 0.12207,0.36621 0.30518,0.48828 0.36621,0.97657 0.39673,0.91552 0.48828,1.46484 l -0.48828,0 -2.19726,0 -0.48828,0 -0.48829,0 -0.48828,0 -2.07519,0 -0.36621,0 -1.46485,0 -0.12207,-0.48828 -0.24414,-0.48828 -0.12207,-0.73242 q -0.12207,-0.18311 -0.12207,-0.36622 -0.57983,-1.15966 -0.73242,-2.19726 l -0.24414,-0.36621 -0.12207,-0.48828 q -0.18311,-0.61036 -0.36621,-0.97657 l 0,-0.36621 q -0.57984,-1.15966 -0.73242,-2.19726 l -0.48829,0 -0.61035,0 -0.48828,0 -0.61035,0 -0.48828,0 -0.61035,0 -1.58692,0 -0.48828,0 -2.07519,0 -0.36621,0 -1.46485,0 -0.48828,0 -0.61035,0 -0.48828,0 -0.61035,0 -0.48828,0 -0.61036,0 -1.58691,0 -0.48828,0 -2.0752,0 -0.36621,0 -1.46484,0 -0.12207,0.48828 -0.24414,0.48828 -0.12207,0.61035 -0.12207,0.48828 q -0.3357,0.70191 -0.48828,1.34278 l -0.12207,0.36621 -0.24415,0.48828 q -0.0305,0.30517 -0.12207,0.48828 l -0.12207,0.48828 -0.12207,0.36621 -0.12207,0.24414 -0.85449,2.80762 -0.48828,0 -2.19727,0 -0.48828,0 -0.48828,0 -0.48828,0 -2.07519,0 -0.36622,0 -1.46484,0 0,-0.36621 0.12207,-0.36621 0.12207,-0.36621 0.12207,-0.48828 q 0.27466,-0.57984 0.36621,-0.97657 l 0.12207,-0.24414 0.24414,-0.97656 0.24414,-0.85449 0.61036,-1.70899 0.12207,-0.36621 0.36621,-1.2207 0.12207,-0.36621 0.12207,-0.36621 q 0.27466,-0.57984 0.36621,-0.97657 l 0.48828,-1.46484 0.85449,-2.68555 0.12207,-0.36621 0.61035,-1.95312 0.12207,-0.36621 q 0.54932,-1.34278 0.73243,-2.19727 l 0.12207,-0.48828 0.24414,-0.36621 q 0.0915,-0.7019 0.36621,-1.34277 l 0.12207,-0.36621 0.12207,-0.36622 0.12207,-0.48828 q 0.27466,-0.57983 0.36621,-0.97656 l 0.12207,-0.24414 0.24414,-0.97656 0.24414,-0.85449 0.36621,-0.8545 0.36621,-1.2207 0.12207,-0.36621 0.12207,-0.36621 0.12207,-0.36621 0.12207,-0.24414 0.61036,-1.95313 0.12207,-0.36621 0.12207,-0.48828 0.97656,-3.05176 q 0.39673,-0.88501 0.48828,-1.46484 l 0.61035,-1.70899 0.73242,-2.07519 0,-0.36621 0.24414,-0.61035 0.12207,-0.36622 0.12208,-0.48828 0.24414,-0.48828 0.12207,-0.36621 0.12207,-0.48828 0.12207,-0.36621 0.12207,-0.48828 0.36621,-0.85449 0.36621,-1.46485 0.24414,-0.73242 0.48828,0 z m 4.39453,10.25391 -0.73242,2.07519 -0.24414,0.85449 -0.36621,0.8545 -0.12207,0.73242 -0.24414,0.73242 -0.36621,0.73242 -0.12207,0.73242 -0.36621,0.73243 0,0.36621 -0.24415,0.36621 q -0.30517,1.58691 -0.73242,2.56347 l -0.12207,0.48828 -0.24414,0.61036 -0.73242,2.07519 -0.36621,1.34278 -0.24414,0.61035 -0.12207,0.48828 -0.24414,0.61035 -0.12207,0.48828 -0.12207,0.36621 -0.12207,0.36621 -0.12207,0.36621 -0.12207,0.24414 q -0.36621,1.40381 -0.73243,2.19727 l 2.0752,0 0.73242,0 0.61035,0 0.73242,0 0.48829,0 2.19726,0 1.34278,0 0.48828,0 0.48828,0 0.48828,0 0.48828,0 2.0752,0 0.36621,0 1.46484,0 -0.24414,-0.97656 -0.36621,-0.85449 -0.24414,-0.8545 -0.36621,-0.85449 -0.61035,-2.07519 -0.24415,-0.97657 -0.36621,-0.85449 -0.12207,-0.61035 q -0.1831,-0.33569 -0.24414,-0.61035 l -0.61035,-1.70899 -0.12207,-0.48828 -0.24414,-0.48828 0,-0.36621 -0.73242,-1.95313 -0.12207,-0.73242 q -0.18311,-0.36621 -0.24414,-0.73242 l -0.24414,-0.48828 -0.12207,-0.24414 -0.24414,-1.09863 q -0.12207,-0.18311 -0.12207,-0.36621 -0.12207,-0.18311 -0.12207,-0.36622 l -0.24415,-0.36621 0,-0.36621 q -0.33569,-0.7019 -0.36621,-1.2207 -0.15258,-0.12207 -0.12207,-0.24414 l -0.61035,-1.46484 0,0.36621 z"
         style="font-style:normal;font-variant:normal;font-weight:normal;font-stretch:normal;font-size:62.5px;font-family:Transport;-inkscape-font-specification:Transport"
         id="path4173" />
      <path
         d="m 453.35225,282.43985 2.19726,0 0.48829,0 0.48828,0 0.48828,0 2.07519,0 0.97657,0 0.85449,0 0,39.42871 0.85449,0 0.36621,0 0.36621,0 1.58692,0 0.36621,0 0.48828,0 0.36621,0 0.61035,0 0.36621,0 0.48828,0 0.36621,0 2.44141,0 0.48828,0 0.48828,0 0.36621,0 2.19727,0 1.58691,0 0.48829,0 2.07519,0 0.36621,0 1.46485,0 0,7.20215 -0.36622,0 -0.48828,0 -0.36621,0 -0.48828,0 -2.19726,0 -0.97657,0 -2.4414,0 -0.36621,0 -0.36622,0 -3.78418,0 -0.85449,0 -0.73242,0 -0.85449,0 -0.73242,0 -0.61035,0 -0.73243,0 -0.48828,0 -2.19726,0 -1.34278,0 -0.48828,0 -0.48828,0 -0.48828,0 -0.48828,0 -2.0752,0 -0.36621,0 -1.46484,0 0,-0.36621 0,-0.48828 0,-0.36621 0,-0.48829 0,-2.19726 0,-0.97656 0,-0.97657 0,-0.36621 0,-2.4414 0,-0.48828 0,-0.61036 0,-0.48828 0,-0.61035 0,-1.58691 0,-0.48828 0,-2.0752 0,-0.36621 0,-1.46484 0,-0.48829 0,-0.61035 0,-1.58691 0,-0.48828 0,-2.0752 0,-0.36621 0,-1.46484 0,-0.85449 0,-0.97657 0,-0.97656 0,-0.97656 0,-0.36621 0,-0.36621 0,-3.78418 0,-0.8545 0,-0.73242 0,-0.85449 0,-0.73242 0,-0.61035 0,-0.73242 0,-0.48829 0,-2.19726 0,-1.34278 0,-0.48828 0,-0.48828 0,-0.48828 0,-0.48828 0,-2.0752 0,-0.36621 0,-1.46484 0.48828,0 z"
         style="font-style:normal;font-variant:normal;font-weight:normal;font-stretch:normal;font-size:62.5px;font-family:Transport;-inkscape-font-specification:Transport"
         id="path4175" />
      <path
         d="m 508.28389,282.31778 2.19727,0 1.34277,0 0.48828,0 0.48828,0 0.48828,0 0.48828,0 2.0752,0 0.36621,0 1.46484,0 0.36621,0 3.78418,0 q 13.24463,-0.97656 17.7002,10.00977 1.83105,5.85937 -0.36621,10.86425 -2.13623,5.21851 -7.20215,6.71387 l 0.24414,0.24414 0.12207,0.36621 0.97656,1.83106 0.36621,0.73242 0.24415,0.73242 1.09863,1.95313 0.48828,1.09863 0.24414,0.36621 0.12207,0.36621 0.36621,0.85449 q 0.45777,0.67139 0.61035,1.22071 0.5188,0.67138 0.73242,1.2207 l 0.36622,0.73242 0.24414,0.61035 q 0.5188,0.88501 0.73242,1.58692 0.82397,1.15966 1.09863,2.19726 l 0.24414,0.24414 0.12207,0.24414 0.12207,0.24414 0.48828,1.22071 q 0.45777,0.54931 0.48828,1.09863 l -0.36621,0 -2.19726,0 -1.58692,0 -0.48828,0 -2.07519,0 -0.36621,0 -1.46485,0 -0.36621,-0.73242 q -0.76294,-1.34278 -1.09863,-2.31934 l -0.36621,-0.61035 -0.36621,-0.61035 -0.12207,-0.48828 q -0.54932,-0.73242 -0.73242,-1.34278 l -0.12208,-0.24414 -0.24414,-0.48828 -0.12207,-0.36621 q -0.15258,-0.12207 -0.12207,-0.24414 l -0.24414,-0.24414 -0.12207,-0.24414 -0.12207,-0.36621 -0.73242,-1.46485 -0.73242,-1.34277 -0.24414,-0.48828 -0.12207,-0.48828 -0.24414,-0.24414 -0.12207,-0.36621 -0.24414,-0.36621 -0.12207,-0.24414 Q 525.8315,314.819 525.4958,314.3002 l -1.58691,-3.41797 -0.48828,0 -2.0752,0 -0.36621,0 -1.46484,0 -0.36621,0 -0.48828,0 -0.36621,0 -2.44141,0 0,18.18848 -0.48828,0 -2.19727,0 -0.48828,0 -0.48828,0 -0.48828,0 -2.0752,0 -0.36621,0 -1.46484,0 0,-0.48828 0,-2.19727 0,-0.97656 0,-0.97656 0,-0.36621 0,-0.48828 0,-2.19727 0,-0.36621 0,-2.44141 0,-0.97656 0,-0.48828 0,-2.19727 0,-0.36621 0,-0.36621 0,-3.78418 0,-0.85449 0,-0.36621 0,-0.48828 0,-2.19727 0,-1.70898 0,-0.36621 0,-0.61036 0,-0.36621 0,-0.48828 0,-0.36621 0,-2.4414 0,-2.0752 0,-0.36621 0,-1.46484 0,-1.58692 0,-0.48828 0,-2.0752 0,-0.36621 0,-1.46484 0,-1.34277 0,-0.61036 0,-1.58691 0,-0.48828 0,-2.0752 0,-0.36621 0,-1.46484 0.48828,0 z m 7.56836,21.3623 0.36621,0 0.36621,0 2.44141,0 0.61035,0 0.48828,0 0.61035,0 1.2207,0 0.48829,0 1.34277,0 0.36621,0 0.36621,0 0.48828,0 0.36621,0 0.8545,0 q 1.64794,0.0305 2.68554,-0.12207 5.24903,-3.72314 3.2959,-9.52148 -1.2207,-2.80762 -3.78418,-4.02832 l -0.61035,-0.12207 -0.61035,-0.12207 q -0.97656,-0.18311 -1.70899,-0.12207 l -1.58691,0 -0.48828,0 -2.19727,0 -0.48828,0 -0.48828,0 -0.48828,0 -2.0752,0 -0.36621,0 -1.46484,0 0,14.03808 z"
         style="font-style:normal;font-variant:normal;font-weight:normal;font-stretch:normal;font-size:62.5px;font-family:Transport;-inkscape-font-specification:Transport"
         id="path4177" />
      <path
         d="m 555.12837,282.43985 0.85449,0 2.44141,0 0.97656,0 0.97657,0 0.97656,0 0.97656,0 2.44141,0 0.36621,0 0.36621,0 3.78418,0 0.85449,0 0.73242,0 0.85449,0 0.73243,0 0.61035,0 0.73242,0 0.48828,0 2.19727,0 1.34277,0 0.48828,0 0.48828,0 0.48828,0 0.48829,0 2.07519,0 0.36621,0 1.46485,0 0,7.32422 -0.36622,0 -0.61035,0 -0.36621,0 -0.48828,0 -0.36621,0 -2.44141,0 -0.48828,0 -0.61035,0 -1.58691,0 -0.48828,0 -2.0752,0 -0.36621,0 -1.46484,0 -0.48829,0 -0.48828,0 -0.36621,0 -2.19726,0 -1.58692,0 -0.48828,0 -2.07519,0 -0.36622,0 -1.46484,0 0,11.71875 q 0.061,0.57983 0.61035,0.48828 l 0.85449,0 0.73243,0 0.85449,0 0.73242,0 0.85449,0 0.73242,0 2.0752,0 0.73242,0 0.61035,0 0.73243,0 0.48828,0 2.19726,0 1.34278,0 0.48828,0 0.48828,0 0.48828,0 0.48828,0 2.0752,0 0.36621,0 1.46484,0 0,7.20215 -0.85449,0 -0.73242,0 -2.0752,0 -0.36621,0 -1.46484,0 -1.58692,0 -0.48828,0 -2.07519,0 -0.36621,0 -1.46485,0 -1.34277,0 -0.61035,0 -1.58692,0 -0.48828,0 -2.07519,0 -0.36622,0 -1.46484,0 0,12.20703 q -0.0305,0.64087 0.48828,0.61035 l 0.36621,0 0.36621,0 2.44141,0 0.36621,0 0.36621,0 3.78418,0 0.85449,0 0.73243,0 0.85449,0 0.73242,0 0.61035,0 0.73242,0 0.48828,0 2.19727,0 1.34277,0 0.48829,0 0.48828,0 0.48828,0 0.48828,0 2.07519,0 0.36622,0 1.46484,0 0,7.20215 -0.36621,0 -0.48828,0 -2.0752,0 -0.36621,0 -1.46484,0 -2.44141,0 -0.48828,0 -2.19727,0 -0.36621,0 -0.36621,0 -3.78418,0 -2.07519,0 -0.36621,0 -1.46485,0 -0.48828,0 -0.36621,0 -2.44141,0 -0.48828,0 -0.36621,0 -2.19726,0 -1.58692,0 -0.48828,0 -2.07519,0 -0.36622,0 -1.46484,0 0,-0.48828 0,-2.19727 0,-0.97656 0,-0.97656 0,-0.36621 0,-0.48828 0,-2.19727 0,-0.36621 0,-2.44141 0,-0.97656 0,-0.48828 0,-2.19727 0,-0.36621 0,-0.36621 0,-3.78418 0,-0.85449 0,-0.36621 0,-0.48828 0,-2.19727 0,-1.70898 0,-0.36621 0,-0.61036 0,-0.36621 0,-0.48828 0,-0.36621 0,-2.4414 0,-2.0752 0,-0.36621 0,-1.46484 0,-1.58692 0,-0.48828 0,-2.0752 0,-0.36621 0,-1.46484 0,-1.34277 0,-0.61035 0,-1.58692 0,-0.48828 0,-2.0752 0,-0.36621 0,-1.46484 0.73242,0 z"
         style="font-style:normal;font-variant:normal;font-weight:normal;font-stretch:normal;font-size:62.5px;font-family:Transport;-inkscape-font-specification:Transport"
         id="path4179" />
      <path
         d="m 610.33467,281.46329 q 12.54273,-1.09864 18.67676,7.8125 l -0.61035,0.36621 q -0.57984,0.67139 -1.09864,0.97656 l -0.24414,0.24414 -0.36621,0.36621 -0.36621,0.12207 q -0.54931,0.70191 -1.2207,0.97657 -0.61035,0.82397 -1.46484,1.2207 -0.36622,0.48828 -0.73243,0.73242 -4.85229,-6.34766 -12.08496,-5.61523 -5.61523,0.1831 -7.20215,4.88281 0,3.23486 1.95313,5.37109 l 0.85449,0.48828 0.36621,0.12207 1.34278,0.61036 0.61035,0 0.48828,0.12207 0.61035,0.12207 q 0.67139,0.27465 1.2207,0.36621 l 0.48828,0.12207 0.48829,0.12207 0.36621,0 0.97656,0.24414 3.05176,0.73242 0.36621,0 0.36621,0.12207 0.36621,0 0.36621,0.12207 1.70898,0.36621 0.36622,0.12207 0.48828,0.12207 0.97656,0.36621 q 1.61743,0.42725 2.56348,0.97657 l 0.24414,0.24414 0.36621,0.12207 0.24414,0.36621 q 0.42724,0.21362 0.73242,0.48828 0.21362,0.12207 0.24414,0.24414 l 1.46484,1.34277 q 3.93677,5.82886 1.83106,11.96289 -2.01416,6.86646 -7.8125,9.52149 -0.79346,0.5188 -1.46484,0.73242 -16.29639,3.26538 -25.87891,-8.17871 l 0.12207,-0.24414 0.24414,-0.12207 q 0.12207,-0.15259 0.24414,-0.12207 0.70191,-0.82398 1.46484,-1.22071 l 0.36622,-0.36621 1.46484,-1.2207 0.24414,-0.12207 q 0.12207,-0.15259 0.24414,-0.12207 0.97656,-1.06812 1.83106,-1.58691 l 0.36621,0 q 7.8125,10.28442 18.92089,5.00488 0.67139,-0.76294 1.34278,-1.2207 l 0.12207,-0.36622 q 0.7019,-0.97656 0.97656,-1.95312 0.33569,-4.02832 -2.68555,-6.22559 l -0.36621,-0.12207 q -0.7019,-0.27466 -1.2207,-0.36621 l -0.24414,-0.24414 -0.36621,0 -0.48828,-0.12207 -0.24414,-0.12207 -0.36621,0 -0.24415,-0.12207 q -1.12915,-0.1831 -1.95312,-0.48828 l -0.36621,0 -0.97656,-0.24414 -0.36621,0 -0.48829,-0.12207 -0.24414,-0.12207 q -1.12915,-0.18311 -1.95312,-0.48828 -12.20703,-1.43433 -13.54981,-12.57325 0.27466,-13.30566 14.52637,-14.52636 z"
         style="font-style:normal;font-variant:normal;font-weight:normal;font-stretch:normal;font-size:62.5px;font-family:Transport;-inkscape-font-specification:Transport"
         id="path4181" />
      <path
         d="m 643.99556,282.43985 0.85449,0 2.44141,0 0.97656,0 0.97656,0 0.97657,0 0.97656,0 2.4414,0 0.36622,0 0.36621,0 3.78418,0 0.85449,0 0.73242,0 0.85449,0 0.73242,0 0.61036,0 0.73242,0 0.48828,0 2.19726,0 1.34278,0 0.48828,0 0.48828,0 0.48828,0 0.48828,0 2.0752,0 0.36621,0 1.46484,0 0,7.32422 -0.36621,0 -0.61035,0 -0.36621,0 -0.48828,0 -0.36621,0 -2.44141,0 -0.48828,0 -0.61035,0 -1.58692,0 -0.48828,0 -2.07519,0 -0.36621,0 -1.46485,0 -0.48828,0 -0.48828,0 -0.36621,0 -2.19727,0 -1.58691,0 -0.48828,0 -2.0752,0 -0.36621,0 -1.46484,0 0,11.71875 q 0.061,0.57983 0.61035,0.48828 l 0.85449,0 0.73242,0 0.8545,0 0.73242,0 0.85449,0 0.73242,0 2.0752,0 0.73242,0 0.61035,0 0.73242,0 0.48828,0 2.19727,0 1.34277,0 0.48828,0 0.48829,0 0.48828,0 0.48828,0 2.07519,0 0.36621,0 1.46485,0 0,7.20215 -0.85449,0 -0.73243,0 -2.07519,0 -0.36621,0 -1.46485,0 -1.58691,0 -0.48828,0 -2.0752,0 -0.36621,0 -1.46484,0 -1.34277,0 -0.61036,0 -1.58691,0 -0.48828,0 -2.0752,0 -0.36621,0 -1.46484,0 0,12.20703 q -0.0305,0.64087 0.48828,0.61035 l 0.36621,0 0.36621,0 2.44141,0 0.36621,0 0.36621,0 3.78418,0 0.85449,0 0.73242,0 0.8545,0 0.73242,0 0.61035,0 0.73242,0 0.48828,0 2.19727,0 1.34277,0 0.48828,0 0.48828,0 0.48829,0 0.48828,0 2.07519,0 0.36621,0 1.46485,0 0,7.20215 -0.36621,0 -0.48829,0 -2.07519,0 -0.36621,0 -1.46485,0 -2.4414,0 -0.48828,0 -2.19727,0 -0.36621,0 -0.36621,0 -3.78418,0 -2.0752,0 -0.36621,0 -1.46484,0 -0.48828,0 -0.36621,0 -2.44141,0 -0.48828,0 -0.36621,0 -2.19727,0 -1.58691,0 -0.48828,0 -2.0752,0 -0.36621,0 -1.46484,0 0,-0.48828 0,-2.19727 0,-0.97656 0,-0.97656 0,-0.36621 0,-0.48828 0,-2.19727 0,-0.36621 0,-2.44141 0,-0.97656 0,-0.48828 0,-2.19727 0,-0.36621 0,-0.36621 0,-3.78418 0,-0.85449 0,-0.36621 0,-0.48828 0,-2.19727 0,-1.70898 0,-0.36621 0,-0.61036 0,-0.36621 0,-0.48828 0,-0.36621 0,-2.4414 0,-2.0752 0,-0.36621 0,-1.46484 0,-1.58692 0,-0.48828 0,-2.0752 0,-0.36621 0,-1.46484 0,-1.34277 0,-0.61035 0,-1.58692 0,-0.48828 0,-2.0752 0,-0.36621 0,-1.46484 0.73242,0 z"
         style="font-style:normal;font-variant:normal;font-weight:normal;font-stretch:normal;font-size:62.5px;font-family:Transport;-inkscape-font-specification:Transport"
         id="path4183" />
      <path
         d="m 696.85201,282.43985 2.19726,0 1.34277,0 0.48829,0 0.48828,0 0.48828,0 0.48828,0 2.07519,0 0.36622,0 1.46484,0 0.24414,0.97656 q 0.21362,0.42725 0.24414,0.85449 l 0.24414,0.48829 0.36621,1.2207 0.12207,0.24414 0.12207,0.48828 0.12207,0.36621 0.12207,0.48828 0.36621,0.8545 0.12207,0.24414 0,0.36621 q 0.45777,0.88501 0.61036,1.58691 l 0.12207,0.48828 0.12207,0.24414 0,0.36621 q 0.45776,0.88501 0.61035,1.58692 l 0.24414,0.97656 q 0.42724,0.73242 0.48828,1.46484 l 0.36621,0.8545 0.24414,0.97656 0.24414,0.85449 q 0.12207,0.18311 0.12207,0.36621 l 0.24414,0.36621 0.12207,0.48828 q 0.18311,0.61036 0.36621,0.97657 l 0,0.36621 q 0.57984,1.15967 0.73243,2.19726 0.1831,0.36621 0.24414,0.73242 0.1831,0.36622 0.24414,0.73243 l 0.24414,0.73242 0.24414,0.73242 0.12207,0.24414 0.12207,0.48828 0.12207,0.36621 0.12207,0.48828 0.36621,0.8545 0.12207,0.24414 0,0.36621 q 0.45776,0.88501 0.61035,1.58691 l 0.12207,0.73242 q 0.45777,0.91553 0.61035,1.70899 0.57984,1.34277 0.73243,2.31933 0.1831,0.36622 0.24414,0.73243 l 0.36621,0.73242 0.24414,0.73242 q 0.12207,0.7019 0.36621,1.2207 l 0.24414,1.09864 0.24414,0.48828 0.12207,0.24414 0.24414,1.09863 0.24414,0.48828 0.12207,0.48828 q 0.67139,1.61743 0.8545,2.80762 l 0.24414,0.36621 0,0.36621 q 0.12207,0.18311 0.12207,0.36621 0.30517,0.48828 0.36621,0.97657 0.39673,0.91552 0.48828,1.46484 l -0.48828,0 -2.19727,0 -0.48828,0 -0.48828,0 -0.48828,0 -2.0752,0 -0.36621,0 -1.46484,0 -0.12207,-0.48828 -0.24414,-0.48828 -0.12207,-0.73242 q -0.12207,-0.18311 -0.12207,-0.36622 -0.57984,-1.15966 -0.73243,-2.19726 l -0.24414,-0.36621 -0.12207,-0.48828 q -0.1831,-0.61036 -0.36621,-0.97657 l 0,-0.36621 q -0.57983,-1.15966 -0.73242,-2.19726 l -0.48828,0 -0.61035,0 -0.48828,0 -0.61036,0 -0.48828,0 -0.61035,0 -1.58691,0 -0.48828,0 -2.0752,0 -0.36621,0 -1.46484,0 -0.48828,0 -0.61036,0 -0.48828,0 -0.61035,0 -0.48828,0 -0.61035,0 -1.58692,0 -0.48828,0 -2.07519,0 -0.36621,0 -1.46485,0 -0.12207,0.48828 -0.24414,0.48828 -0.12207,0.61035 -0.12207,0.48828 q -0.33569,0.70191 -0.48828,1.34278 l -0.12207,0.36621 -0.24414,0.48828 q -0.0305,0.30517 -0.12207,0.48828 l -0.12207,0.48828 -0.12207,0.36621 -0.12207,0.24414 -0.85449,2.80762 -0.48829,0 -2.19726,0 -0.48828,0 -0.48828,0 -0.48828,0 -2.0752,0 -0.36621,0 -1.46484,0 0,-0.36621 0.12207,-0.36621 0.12207,-0.36621 0.12207,-0.48828 q 0.27465,-0.57984 0.36621,-0.97657 l 0.12207,-0.24414 0.24414,-0.97656 0.24414,-0.85449 0.61035,-1.70899 0.12207,-0.36621 0.36621,-1.2207 0.12207,-0.36621 0.12207,-0.36621 q 0.27466,-0.57984 0.36621,-0.97657 l 0.48828,-1.46484 0.8545,-2.68555 0.12207,-0.36621 0.61035,-1.95312 0.12207,-0.36621 q 0.54931,-1.34278 0.73242,-2.19727 l 0.12207,-0.48828 0.24414,-0.36621 q 0.0915,-0.7019 0.36621,-1.34277 l 0.12207,-0.36621 0.12207,-0.36622 0.12207,-0.48828 q 0.27466,-0.57983 0.36621,-0.97656 l 0.12207,-0.24414 0.24415,-0.97656 0.24414,-0.85449 0.36621,-0.8545 0.36621,-1.2207 0.12207,-0.36621 0.12207,-0.36621 0.12207,-0.36621 0.12207,-0.24414 0.61035,-1.95313 0.12207,-0.36621 0.12207,-0.48828 0.97656,-3.05176 q 0.39673,-0.88501 0.48828,-1.46484 l 0.61036,-1.70899 0.73242,-2.07519 0,-0.36621 0.24414,-0.61035 0.12207,-0.36622 0.12207,-0.48828 0.24414,-0.48828 0.12207,-0.36621 0.12207,-0.48828 0.12207,-0.36621 0.12207,-0.48828 0.36621,-0.85449 0.36621,-1.46485 0.24414,-0.73242 0.48829,0 z m 4.39453,10.25391 -0.73243,2.07519 -0.24414,0.85449 -0.36621,0.8545 -0.12207,0.73242 -0.24414,0.73242 -0.36621,0.73242 -0.12207,0.73242 -0.36621,0.73243 0,0.36621 -0.24414,0.36621 q -0.30518,1.58691 -0.73242,2.56347 l -0.12207,0.48828 -0.24414,0.61036 -0.73243,2.07519 -0.36621,1.34278 -0.24414,0.61035 -0.12207,0.48828 -0.24414,0.61035 -0.12207,0.48828 -0.12207,0.36621 -0.12207,0.36621 -0.12207,0.36621 -0.12207,0.24414 q -0.36621,1.40381 -0.73242,2.19727 l 2.07519,0 0.73243,0 0.61035,0 0.73242,0 0.48828,0 2.19727,0 1.34277,0 0.48828,0 0.48828,0 0.48828,0 0.48828,0 2.0752,0 0.36621,0 1.46484,0 -0.24414,-0.97656 -0.36621,-0.85449 -0.24414,-0.8545 -0.36621,-0.85449 -0.61035,-2.07519 -0.24414,-0.97657 -0.36621,-0.85449 -0.12207,-0.61035 q -0.18311,-0.33569 -0.24414,-0.61035 l -0.61035,-1.70899 -0.12207,-0.48828 -0.24415,-0.48828 0,-0.36621 -0.73242,-1.95313 -0.12207,-0.73242 q -0.1831,-0.36621 -0.24414,-0.73242 l -0.24414,-0.48828 -0.12207,-0.24414 -0.24414,-1.09863 q -0.12207,-0.18311 -0.12207,-0.36621 -0.12207,-0.18311 -0.12207,-0.36622 l -0.24414,-0.36621 0,-0.36621 q -0.33569,-0.7019 -0.36621,-1.2207 -0.15259,-0.12207 -0.12207,-0.24414 l -0.61035,-1.46484 0,0.36621 z"
         style="font-style:normal;font-variant:normal;font-weight:normal;font-stretch:normal;font-size:62.5px;font-family:Transport;-inkscape-font-specification:Transport"
         id="path4185" />
      <path
         d="m 732.52705,282.31778 2.19727,0 1.34277,0 0.48828,0 0.48829,0 0.48828,0 0.48828,0 2.07519,0 0.36621,0 1.46485,0 0.36621,0 3.78418,0 q 13.24463,-0.97656 17.70019,10.00977 1.83106,5.85937 -0.36621,10.86425 -2.13623,5.21851 -7.20215,6.71387 l 0.24415,0.24414 0.12207,0.36621 0.97656,1.83106 0.36621,0.73242 0.24414,0.73242 1.09863,1.95313 0.48828,1.09863 0.24414,0.36621 0.12207,0.36621 0.36622,0.85449 q 0.45776,0.67139 0.61035,1.22071 0.5188,0.67138 0.73242,1.2207 l 0.36621,0.73242 0.24414,0.61035 q 0.5188,0.88501 0.73242,1.58692 0.82398,1.15966 1.09864,2.19726 l 0.24414,0.24414 0.12207,0.24414 0.12207,0.24414 0.48828,1.22071 q 0.45776,0.54931 0.48828,1.09863 l -0.36621,0 -2.19727,0 -1.58691,0 -0.48828,0 -2.0752,0 -0.36621,0 -1.46484,0 -0.36621,-0.73242 q -0.76294,-1.34278 -1.09864,-2.31934 l -0.36621,-0.61035 -0.36621,-0.61035 -0.12207,-0.48828 q -0.54932,-0.73242 -0.73242,-1.34278 l -0.12207,-0.24414 -0.24414,-0.48828 -0.12207,-0.36621 q -0.15259,-0.12207 -0.12207,-0.24414 l -0.24414,-0.24414 -0.12207,-0.24414 -0.12207,-0.36621 -0.73243,-1.46485 -0.73242,-1.34277 -0.24414,-0.48828 -0.12207,-0.48828 -0.24414,-0.24414 -0.12207,-0.36621 -0.24414,-0.36621 -0.12207,-0.24414 q -0.39673,-0.94605 -0.73242,-1.46485 l -1.58692,-3.41797 -0.48828,0 -2.07519,0 -0.36621,0 -1.46485,0 -0.36621,0 -0.48828,0 -0.36621,0 -2.44141,0 0,18.18848 -0.48828,0 -2.19726,0 -0.48828,0 -0.48829,0 -0.48828,0 -2.07519,0 -0.36621,0 -1.46485,0 0,-0.48828 0,-2.19727 0,-0.97656 0,-0.97656 0,-0.36621 0,-0.48828 0,-2.19727 0,-0.36621 0,-2.44141 0,-0.97656 0,-0.48828 0,-2.19727 0,-0.36621 0,-0.36621 0,-3.78418 0,-0.85449 0,-0.36621 0,-0.48828 0,-2.19727 0,-1.70898 0,-0.36621 0,-0.61036 0,-0.36621 0,-0.48828 0,-0.36621 0,-2.4414 0,-2.0752 0,-0.36621 0,-1.46484 0,-1.58692 0,-0.48828 0,-2.0752 0,-0.36621 0,-1.46484 0,-1.34277 0,-0.61036 0,-1.58691 0,-0.48828 0,-2.0752 0,-0.36621 0,-1.46484 0.48828,0 z m 7.56836,21.3623 0.36621,0 0.36622,0 2.4414,0 0.61035,0 0.48828,0 0.61036,0 1.2207,0 0.48828,0 1.34277,0 0.36621,0 0.36622,0 0.48828,0 0.36621,0 0.85449,0 q 1.64795,0.0305 2.68555,-0.12207 5.24902,-3.72314 3.2959,-9.52148 -1.22071,-2.80762 -3.78418,-4.02832 l -0.61036,-0.12207 -0.61035,-0.12207 q -0.97656,-0.18311 -1.70898,-0.12207 l -1.58692,0 -0.48828,0 -2.19726,0 -0.48828,0 -0.48829,0 -0.48828,0 -2.07519,0 -0.36621,0 -1.46485,0 0,14.03808 z"
         style="font-style:normal;font-variant:normal;font-weight:normal;font-stretch:normal;font-size:62.5px;font-family:Transport;-inkscape-font-specification:Transport"
         id="path4187" />
      <path
         d="m 796.43086,281.09708 q 16.84571,-0.64087 21.72852,14.03808 -0.12207,0.24414 -0.36621,0.36621 l -0.61035,0.12207 -0.48829,0.12207 -0.48828,0 q -0.33569,0.12207 -0.61035,0.12207 -0.7019,0.27466 -1.2207,0.24414 -0.18311,0.12208 -0.36621,0.12208 l -0.48828,0.12207 -0.8545,0.12207 -0.24414,0.12207 -1.95312,0.36621 q -4.11987,-10.80323 -15.38086,-8.17871 -0.18311,0.12207 -0.36621,0.12207 l -0.85449,0.36621 q -0.67139,0.36621 -1.22071,0.48828 -0.12207,0.21362 -0.24414,0.24414 l -0.36621,0.12207 -0.36621,0.24414 -0.24414,0.24414 -0.36621,0.12207 q -1.12915,1.15967 -1.95313,1.70899 l -0.12207,0.36621 -0.61035,0.61035 -0.12207,0.36621 -0.24414,0.12207 q -0.45776,1.15967 -0.97656,1.83105 -2.7771,9.27735 -0.61035,17.57813 2.41089,9.06372 11.35254,9.88769 9.88769,0.061 12.69531,-8.66699 l 0.61035,0.12207 q 0.73242,0.21363 1.34277,0.24414 l 0.24414,0.12207 1.95313,0.36621 0.48828,0.12207 0.85449,0.12207 2.19727,0.48829 q -4.36402,13.06152 -17.08985,14.28222 -13.67187,0.91553 -20.1416,-9.88769 -6.16455,-12.6648 -1.95312,-24.90235 4.63867,-13.09204 17.45605,-14.52636 z"
         style="font-style:normal;font-variant:normal;font-weight:normal;font-stretch:normal;font-size:62.5px;font-family:Transport;-inkscape-font-specification:Transport"
         id="path4189" />
      <path
         d="m 827.98604,282.56192 2.19726,0 0.48829,0 0.48828,0 0.48828,0 2.07519,0 0.97657,0 0.85449,0 0,18.18848 0.36621,0 0.36621,0 3.78418,0 2.07519,0 0.97657,0 0.85449,0 0.48828,0 0.36621,0 2.44141,0 0.48828,0 0.36621,0 2.19727,0 1.58691,0 0.48828,0 2.0752,0 0.36621,0 1.46484,0 0,-0.8545 0,-0.36621 0,-0.36621 0,-1.58691 0,-0.36621 0,-0.48828 0,-0.36621 0,-0.61036 0,-0.36621 0,-0.48828 0,-0.36621 0,-2.44141 0,-0.48828 0,-0.48828 0,-0.36621 0,-2.19726 0,-1.58692 0,-0.48828 0,-2.0752 0,-0.36621 0,-1.46484 0.48828,0 2.19727,0 0.48828,0 0.48828,0 0.48828,0 2.0752,0 0.36621,0 1.46484,0 0,46.63086 -0.48828,0 -2.19727,0 -0.48828,0 -0.48828,0 -0.48828,0 -2.07519,0 -0.36622,0 -1.46484,0 0,-0.36621 0,-0.61035 0,-0.36621 0,-0.48829 0,-0.36621 0,-2.4414 0,-0.48828 0,-0.61036 0,-1.58691 0,-0.48828 0,-2.0752 0,-0.36621 0,-1.46484 0,-0.48828 0,-0.48828 0,-0.36621 0,-2.19727 0,-1.58691 0,-0.48828 0,-2.0752 0,-0.36621 0,-1.46484 -0.36621,0 -0.36621,0 -3.78418,0 -2.0752,0 -0.36621,0 -1.46484,0 -0.48828,0 -0.36621,0 -2.44141,0 -0.48828,0 -0.36621,0 -2.19727,0 -1.58691,0 -0.48828,0 -2.0752,0 -0.36621,0 -1.46484,0 0,21.24023 -0.48828,0 -2.19727,0 -0.48828,0 -0.48828,0 -0.48828,0 -2.0752,0 -0.36621,0 -1.46484,0 0,-0.36621 0,-0.48828 0,-0.36621 0,-0.48828 0,-2.19727 0,-0.97656 0,-0.97657 0,-0.36621 0,-2.4414 0,-0.48828 0,-0.61036 0,-0.48828 0,-0.61035 0,-1.58691 0,-0.48828 0,-2.0752 0,-0.36621 0,-1.46484 0,-0.48828 0,-0.61036 0,-1.58691 0,-0.48828 0,-2.0752 0,-0.36621 0,-1.46484 0,-0.85449 0,-0.97657 0,-0.97656 0,-0.97656 0,-0.36621 0,-0.36621 0,-3.78418 0,-0.8545 0,-0.73242 0,-0.85449 0,-0.73242 0,-0.61035 0,-0.73242 0,-0.48829 0,-2.19726 0,-1.34277 0,-0.48829 0,-0.48828 0,-0.48828 0,-0.48828 0,-2.0752 0,-0.36621 0,-1.46484 0.48828,0 z"
         style="font-style:normal;font-variant:normal;font-weight:normal;font-stretch:normal;font-size:62.5px;font-family:Transport;-inkscape-font-specification:Transport"
         id="path4191" />
      <path
         d="m 900.00752,282.56192 0.61035,0 0.48829,0 0.61035,0 1.58691,0 0.48828,0 2.0752,0 0.97656,0 0.85449,0 0.24414,32.4707 0.48828,1.70899 q 3.17383,5.95093 9.27735,6.22558 6.62231,-0.48828 9.39941,-5.98144 l 0,-0.36621 0.12207,-0.24414 0.12207,-0.24414 q 0.57984,-2.19727 0.61035,-3.66211 l 0,-0.8545 0,-0.36621 0,-0.36621 0,-3.78418 0,-0.97656 0,-0.97656 0,-1.70899 0,-0.36621 0,-0.61035 0,-0.36621 0,-0.48828 0,-0.36621 0,-2.44141 0,-2.07519 0,-0.36621 0,-1.46485 0,-0.48828 0,-0.36621 0,-2.44141 0,-0.48828 0,-0.36621 0,-2.19726 0,-1.58692 0,-0.48828 0,-2.0752 0,-0.36621 0,-1.46484 0.48829,0 2.19726,0 0.48828,0 0.48828,0 0.48828,0 2.0752,0 0.36621,0 1.46484,0 0,29.41895 q 0,0.61035 0.12208,0.97656 l -0.12208,1.95312 -0.12207,0.8545 -0.12207,0.85449 -0.12207,0.24414 -0.48828,1.95312 q -6.95801,13.54981 -21.24023,11.1084 -9.42993,-2.38037 -13.1836,-10.37598 l -0.36621,-1.34277 q -0.15258,-0.12207 -0.12207,-0.24414 -0.5188,-1.64795 -0.61035,-2.68555 l 0,-0.97656 -0.12207,-0.85449 0,-1.70899 0,-0.36621 0,-0.61035 0,-0.36621 0,-0.48828 0,-0.36621 0,-2.44141 0,-0.97656 0,-0.97656 0,-1.70899 0,-0.36621 0,-0.61035 0,-0.36621 0,-0.48828 0,-0.36621 0,-2.44141 0,-2.07519 0,-0.36621 0,-1.46485 0,-0.48828 0,-0.36621 0,-2.44141 0,-0.48828 0,-0.36621 0,-2.19726 0,-1.58692 0,-0.48828 0,-2.0752 0,-0.36621 0,-1.46484 0.48828,0 z"
         style="font-style:normal;font-variant:normal;font-weight:normal;font-stretch:normal;font-size:62.5px;font-family:Transport;-inkscape-font-specification:Transport"
         id="path4193" />
      <path
         d="m 951.64326,282.31778 0.36622,0 2.19726,0 1.58692,0 0.48828,0 2.07519,0 0.36621,0 1.46485,0 0.48828,0.85449 0.24414,0.24414 0.48828,0.85449 q 0.5188,0.70191 0.73242,1.22071 l 0.24414,0.12207 0.12207,0.24414 1.09864,1.70898 0.48828,0.73242 0.48828,0.73243 q 0.15259,0.12207 0.12207,0.24414 0.88501,0.94604 1.2207,1.83105 0.82398,0.91553 1.2207,1.70899 l 0.48829,0.61035 0.36621,0.73242 0.24414,0.36621 0.24414,0.24414 0.48828,0.85449 0.24414,0.24414 0.85449,1.34278 0.48828,0.73242 0.48828,0.73242 0.8545,1.2207 0.24414,0.24415 0.24414,0.36621 0.12207,0.36621 0.24414,0.36621 0.24414,0.24414 0.48828,0.85449 0.24414,0.24414 0.85449,1.34277 0.12207,0.24415 0.24414,0.36621 q 0.15259,0.12207 0.12207,0.24414 0.61036,0.67138 0.97657,1.2207 l 0.36621,0.61035 0.24414,0.48828 q 0.64087,0.67139 0.85449,1.34278 l 0.48828,0.73242 q 0.39673,0.30517 0.61035,0.73242 l 0.48829,0.73242 q 0.57983,0.85449 0.85449,1.46485 0.1831,0.15258 0.24414,0.36621 l 0.36621,0.24414 0.12207,0.36621 0.24414,0.24414 0.24414,0.36621 0.12207,0.36621 q 0.91553,1.0376 1.34277,1.83106 l 0,-0.36622 0,-0.36621 0,-0.36621 0,-1.58691 0,-1.70899 0,-0.36621 0,-0.61035 0,-0.36621 0,-0.48828 0,-0.36621 0,-2.44141 0,-0.97656 0,-0.97656 0,-1.70899 0,-0.36621 0,-0.61035 0,-0.36621 0,-0.48828 0,-0.36621 0,-2.44141 0,-2.07519 0,-0.36622 0,-1.46484 0,-0.48828 0,-0.36621 0,-2.44141 0,-0.48828 0,-0.36621 0,-2.19727 0,-1.58691 0,-0.48828 0,-2.0752 0,-0.36621 0,-1.46484 0.48829,0 2.19726,0 0.48828,0 0.48828,0 0.48828,0 2.0752,0 0.97656,0 0.85449,0 0,46.75293 -0.48828,0 -0.36621,0 -2.19726,0 -1.58692,0 -0.48828,0 -2.07519,0 -0.36621,0 -1.46485,0 -0.48828,-0.85449 -0.24414,-0.24414 -0.12207,-0.36621 q -0.91553,-1.0376 -1.34277,-1.83106 l -0.12207,-0.24414 q -0.91553,-1.2207 -1.34278,-2.0752 l -0.61035,-0.73242 -1.2207,-1.83105 -0.12207,-0.24414 -0.24414,-0.24414 -0.48828,-0.8545 q -0.5188,-0.7019 -0.73243,-1.2207 -0.61035,-0.61035 -0.85449,-1.09863 -0.42724,-0.64087 -0.61035,-1.09863 -0.21362,-0.12207 -0.24414,-0.24414 l -0.24414,-0.24415 -0.12207,-0.36621 -0.24414,-0.24414 -0.12207,-0.36621 q -0.64087,-0.64087 -0.97657,-1.2207 l -1.58691,-2.31934 -0.24414,-0.61035 q -0.73242,-0.7019 -0.97656,-1.46484 -0.88501,-0.94605 -1.22071,-1.83106 l -0.48828,-0.48828 -0.24414,-0.61035 -0.61035,-0.61035 -0.36621,-0.73242 -0.36621,-0.48828 q -0.5188,-0.70191 -0.73242,-1.22071 l -0.48828,-0.73242 q -0.21363,-0.12207 -0.24414,-0.24414 l -0.8545,-1.2207 q -0.57983,-0.8545 -0.85449,-1.46485 l -0.36621,-0.36621 -0.12207,-0.36621 -0.36621,-0.36621 -0.12207,-0.36621 q -0.21362,-0.12207 -0.24414,-0.24414 -0.15259,-0.12207 -0.12207,-0.24414 -0.91553,-1.0376 -1.34278,-1.83106 l 0,33.44727 -0.48828,0 -2.19726,0 -0.48828,0 -0.48829,0 -0.48828,0 -2.07519,0 -0.36621,0 -1.46485,0 0,-0.48828 0,-2.19727 0,-0.97656 0,-0.97656 0,-0.36621 0,-0.48828 0,-2.19727 0,-0.36621 0,-2.44141 0,-0.97656 0,-0.48828 0,-2.19727 0,-0.36621 0,-0.36621 0,-3.78418 0,-0.85449 0,-0.36621 0,-0.48828 0,-2.19727 0,-1.70898 0,-0.36621 0,-0.61036 0,-0.36621 0,-0.48828 0,-0.36621 0,-2.4414 0,-2.0752 0,-0.36621 0,-1.46484 0,-1.58692 0,-0.48828 0,-2.0752 0,-0.36621 0,-1.46484 0,-1.34277 0,-0.61036 0,-1.58691 0,-0.48828 0,-2.0752 0,-0.36621 0,-1.46484 0.48828,0 z"
         style="font-style:normal;font-variant:normal;font-weight:normal;font-stretch:normal;font-size:62.5px;font-family:Transport;-inkscape-font-specification:Transport"
         id="path4195" />
      <path
         d="m 1007.1853,282.56192 2.1972,0 0.4883,0 0.4883,0 0.4883,0 2.0752,0 0.9765,0 0.8545,0 0,46.63086 -0.4883,0 -2.1972,0 -0.4883,0 -0.4883,0 -0.4883,0 -2.0752,0 -0.3662,0 -1.4648,0 0,-0.36621 0,-0.48828 0,-0.36621 0,-0.48828 0,-2.19727 0,-0.97656 0,-0.97657 0,-0.36621 0,-2.4414 0,-0.48828 0,-0.61036 0,-0.48828 0,-0.61035 0,-1.58691 0,-0.48828 0,-2.0752 0,-0.36621 0,-1.46484 0,-0.48828 0,-0.61036 0,-1.58691 0,-0.48828 0,-2.0752 0,-0.36621 0,-1.46484 0,-0.85449 0,-0.97657 0,-0.97656 0,-0.97656 0,-0.36621 0,-0.36621 0,-3.78418 0,-0.8545 0,-0.73242 0,-0.85449 0,-0.73242 0,-0.61035 0,-0.73242 0,-0.48829 0,-2.19726 0,-1.34277 0,-0.48829 0,-0.48828 0,-0.48828 0,-0.48828 0,-2.0752 0,-0.36621 0,-1.46484 0.4883,0 z"
         style="font-style:normal;font-variant:normal;font-weight:normal;font-stretch:normal;font-size:62.5px;font-family:Transport;-inkscape-font-specification:Transport"
         id="path4197" />
      <path
         d="m 1024.3972,282.31778 2.4414,0 1.709,0 0.3662,0 0.6103,0 0.3662,0 0.4883,0 0.3662,0 2.4414,0 0.9766,0 0.9766,0 1.7089,0 0.3663,0 0.6103,0 0.3662,0 0.4883,0 0.3662,0 2.4414,0 2.0752,0 0.3662,0 1.4649,0 0.4882,0 0.3663,0 2.4414,0 0.4882,0 0.3663,0 2.1972,0 1.5869,0 0.4883,0 2.0752,0 0.3662,0 1.4649,0 0,7.32422 -0.8545,0 -0.7324,0 -0.6104,0 -0.7324,0 -0.4883,0 -2.1973,0 -1.3427,0 -0.4883,0 -0.4883,0 -0.4883,0 -0.4883,0 -2.0752,0 -0.3662,0 -1.4648,0 0,39.42871 -0.4883,0 -2.1973,0 -0.4882,0 -0.4883,0 -0.4883,0 -2.0752,0 -0.3662,0 -1.4649,0 0,-1.70899 0,-0.36621 0,-0.61035 0,-0.36621 0,-0.48828 0,-0.36621 0,-2.44141 0,-0.85449 0,-0.85449 0,-0.85449 0,-0.36621 0,-0.36622 0,-1.58691 0,-0.36621 0,-0.61035 0,-0.36621 0,-0.48828 0,-0.36622 0,-2.4414 0,-0.97656 0,-1.70899 0,-0.36621 0,-0.61035 0,-0.36621 0,-0.48828 0,-0.36621 0,-2.44141 0,-2.0752 0,-0.36621 0,-1.46484 0,-0.48828 0,-0.36621 0,-2.44141 0,-0.48828 0,-0.36621 0,-2.19727 0,-1.58691 0,-0.48828 0,-2.0752 0,-0.36621 0,-1.46484 -0.8544,0 -0.7325,0 -0.6103,0 -0.7324,0 -0.4883,0 -2.1973,0 -1.3428,0 -0.4882,0 -0.4883,0 -0.4883,0 -0.4883,0 -2.0752,0 -0.3662,0 -1.4648,0 0,-1.70899 0,-1.34277 0,-0.61035 0,-0.36621 0,-0.48828 0,-0.36621 0,-2.44141 0.3662,0 z"
         style="font-style:normal;font-variant:normal;font-weight:normal;font-stretch:normal;font-size:62.5px;font-family:Transport;-inkscape-font-specification:Transport"
         id="path4199" />
    </g>
    <g
       style="font-style:normal;font-variant:normal;font-weight:normal;font-stretch:normal;font-size:40px;line-height:125%;font-family:'Transport Heavy';-inkscape-font-specification:'Transport Heavy, ';letter-spacing:0px;word-spacing:0px;fill:#000000;fill-opacity:1;stroke:none;stroke-width:1px;stroke-linecap:butt;stroke-linejoin:miter;stroke-opacity:1"
       id="text4136-4">
      <path
         d="m 162.45869,117.4628 0.97657,0 4.39453,0 0.97656,0 0.97656,0 0.97657,0 4.15039,0 0.73242,0 2.92969,0 0,93.26172 -3.17383,0 -0.97656,0 -4.39454,0 -0.97656,0 -0.97656,0 -0.97656,0 -4.15039,0 -0.73243,0 -2.92968,0 0,-0.73242 0,-0.97657 0,-0.73242 0,-0.97656 0,-4.39453 0,-1.95313 0,-1.95312 0,-0.73242 0,-4.88282 0,-0.97656 0,-1.2207 0,-0.97656 0,-1.22071 0,-3.17383 0,-0.97656 0,-4.15039 0,-0.73242 0,-2.92969 0,-0.97656 0,-1.2207 0,-3.17383 0,-0.97656 0,-4.1504 0,-0.73242 0,-2.92968 0,-1.70899 0,-1.95312 0,-1.95313 0,-1.95312 0,-0.73243 0,-0.73242 0,-7.56836 0,-1.70898 0,-1.46485 0,-1.70898 0,-1.46484 0,-1.22071 0,-1.46484 0,-0.97656 0,-4.39453 0,-2.68555 0,-0.97656 0,-0.97657 0,-0.97656 0,-0.97656 0,-4.15039 0,-0.73242 0,-2.92969 3.17382,0 z"
         style="font-size:125px"
         id="path4138" />
      <path
         d="m 208.60127,116.97452 3.41797,0 1.2207,0 0.97657,0 4.39453,0 0.97656,0 0.97656,0 0.97657,0 4.15039,0 0.73242,0 2.92969,0 0.97656,1.70898 0.97656,1.46485 0.97656,1.46484 0.97657,1.46484 0.97656,1.46485 0.73242,0.73242 0.24414,0.73242 q 0.30518,0.24414 0.24414,0.48828 1.77002,1.89209 2.44141,3.66211 1.77002,1.89209 2.4414,3.66211 l 0.97657,1.2207 0.97656,1.46485 q 0.67139,1.09863 1.2207,1.70898 l 0.24414,0.73242 q 0.91553,0.97657 1.22071,1.95313 2.4414,2.74658 3.41796,5.12695 l 0.97657,1.46485 q 0.30517,0.24414 0.24414,0.48828 1.83105,2.07519 2.68554,3.66211 l 0.97657,1.46484 0.73242,1.46484 0.97656,1.46485 0.97656,0.97656 0.73243,1.2207 0.48828,1.22071 q 1.58691,1.58691 2.19726,3.17382 l 0.73242,0.97657 0.48829,0.97656 0.73242,0.73242 q 1.15967,1.70899 1.70898,2.92969 l 0.73242,0.73242 0.48829,0.73242 0.24414,0.73242 0.48828,0.24415 q 0.79345,1.77001 1.70898,2.68554 l 0.24414,0.73242 q 0.30518,0.24414 0.24414,0.48829 2.2583,2.50244 3.17383,4.63867 l 0.24414,-1.70899 0,-1.70898 0,-1.95313 0,-0.97656 0,-4.39453 0,-2.68555 0,-0.97656 0,-0.97656 0,-0.97656 0,-0.97657 0,-4.15039 0,-0.73242 0,-2.92969 0,-1.46484 0,-4.15039 0,-0.73242 0,-2.92969 0,-3.17383 0,-0.97656 0,-4.15039 0,-0.73242 0,-2.92969 0,-2.68555 0,-1.2207 0,-3.17383 0,-0.97656 0,-4.15039 0,-0.73242 0,-2.92969 3.17383,0 0.97656,0 4.39453,0 0.97657,0 0.97656,0 0.97656,0 4.15039,0 0.73242,0 2.92969,0 0,93.26172 -0.73242,0 -2.92969,0 -2.4414,0 -1.70899,0 -1.46484,0 -1.22071,0 -0.97656,0 -0.97656,0 -0.97656,0 -0.73243,0 -0.73242,0 -0.73242,0 -0.48828,0 0.48828,0 -0.48828,0 -1.95313,0 -0.73242,0 -3.17383,0 -0.24414,-0.48828 q -0.85449,-1.09864 -1.2207,-1.95313 -0.30518,-0.24414 -0.24414,-0.48828 -2.2583,-2.50244 -3.17383,-4.63867 -0.30517,-0.24414 -0.24414,-0.48828 l -0.97656,-1.46485 q -1.28174,-1.46484 -1.95313,-2.92969 l -1.2207,-1.46484 -0.97656,-1.70898 -0.97656,-1.70899 q -1.64795,-1.83105 -2.44141,-3.41797 l -0.48828,-0.48828 q -0.97656,-2.13623 -2.19727,-3.41797 l -0.24414,-0.48828 -0.48828,-0.73242 -2.19726,-3.41797 q -0.8545,-1.09863 -1.22071,-1.95312 -0.30517,-0.24414 -0.24414,-0.48828 l -0.48828,-0.24415 -0.97656,-1.70898 -0.24414,-0.48828 q -0.8545,-1.09863 -1.22071,-1.95313 -0.54931,-0.61035 -0.73242,-1.2207 l -0.97656,-0.97656 -0.97656,-1.46485 -0.48828,-1.2207 -0.48829,-0.24414 -0.97656,-1.70898 -2.19726,-3.17383 -0.48828,-0.97656 -0.48829,-0.97657 -0.73242,-0.73242 -0.48828,-0.73242 -0.24414,-0.73242 q -1.2207,-1.34278 -1.95312,-2.44141 l -0.48829,-0.97656 q -1.03759,-1.40381 -1.46484,-2.44141 -0.42725,-0.24414 -0.48828,-0.48828 l -0.48828,-0.48828 -0.24414,-0.48828 -0.97657,-1.70899 -2.19726,-3.17382 0,62.5 -3.17383,0 -0.97656,0 -4.39453,0 -0.97657,0 -0.97656,0 -0.97656,0 -4.15039,0 -0.73242,0 -2.92969,0 0,-0.73243 0,-0.97656 0,-0.73242 0,-0.97656 0,-4.39453 0,-1.95313 0,-1.95312 0,-0.73243 0,-4.88281 0,-0.97656 0,-1.2207 0,-0.97657 0,-1.2207 0,-3.17383 0,-0.97656 0,-4.15039 0,-0.73242 0,-2.92969 0,-0.97656 0,-1.22071 0,-3.17382 0,-0.97657 0,-4.15039 0,-0.73242 0,-2.92969 0,-1.70898 0,-1.95313 0,-1.95312 0,-1.95313 0,-0.73242 0,-0.73242 0,-7.56836 0,-1.70898 0,-1.46485 0,-1.70898 0,-1.46484 0,-1.22071 0,-1.46484 0,-0.97656 0,-4.39454 0,-2.68554 0,-0.97656 0,-0.97657 0,-0.97656 0,-0.97656 0,-4.15039 0,-0.73242 0,-2.92969 1.2207,0 z"
         style="font-size:125px"
         id="path4140" />
      <path
         d="m 356.7336,115.26553 q 35.58349,-1.83105 46.875,29.05274 l -0.97657,0.73242 -4.15039,1.46484 -0.97656,0.48828 -0.97656,0.24415 q -1.77002,1.03759 -3.17383,1.46484 l -1.2207,0.24414 -0.48828,0.48828 -0.73243,0 -0.48828,0.48828 -0.73242,0 -0.48828,0.48828 -0.73242,0 -0.48828,0.48828 -0.97657,0.24415 -2.68554,0.97656 q -6.10352,-22.15576 -28.32032,-17.82227 -17.21191,6.65283 -16.8457,25.63477 -2.2583,19.71435 9.52149,29.78515 9.70459,6.5918 20.26367,3.41797 13.30566,-4.33349 15.13672,-17.33398 2.31933,0.42724 3.90625,1.46484 2.50244,0.67139 4.15039,1.46485 l 0.97656,0.48828 1.46484,0.48828 0.73243,0.24414 1.70898,0.73242 0.97656,0.24414 0.73242,0.48828 q 1.22071,0.30518 1.95313,0.73242 l 2.92969,0.97657 q -9.76563,27.09961 -36.37696,29.29687 -26.9165,1.95313 -40.77148,-18.31054 -14.77051,-26.06202 -4.39453,-51.51368 10.49804,-24.23095 34.66797,-27.34375 z"
         style="font-size:125px"
         id="path4142" />
      <path
         d="m 422.16328,117.70694 1.22071,0 0.97656,0 4.15039,0 2.68555,0 0.97656,0 4.15039,0 1.95313,0 1.70898,0 0.24414,58.83789 1.46484,5.37109 q 6.16456,10.80323 17.33399,11.47461 12.02392,-0.91552 17.57812,-10.49804 l 0,-0.73243 q 1.83106,-3.72314 1.95313,-7.32421 0.36621,-2.80762 0.24414,-4.88282 l 0,-1.95312 0,-1.95313 0,-3.41797 0,-0.73242 0,-1.2207 0,-0.73242 0,-0.97656 0,-0.73243 0,-4.88281 0,-4.15039 0,-0.73242 0,-2.92969 0,-3.17383 0,-0.97656 0,-4.15039 0,-0.73242 0,-2.92969 0,-2.68555 0,-1.2207 0,-3.17383 0,-0.97656 0,-4.15039 0,-0.73242 0,-2.92969 0.97656,0 0.97656,0 0.73243,0 4.39453,0 3.17383,0 0.97656,0 4.15039,0 0.73242,0 2.92969,0 0,60.05859 q -0.24414,1.15967 -0.24414,1.95313 l -0.24414,0.48828 q -0.30518,3.23486 -0.97657,5.37109 -5.61523,15.31983 -18.31054,22.2168 -15.625,8.17871 -30.76172,2.92969 -30.45654,-11.59668 -26.61133,-48.82813 l 0,-3.41797 0,-2.68554 0,-1.22071 0,-0.73242 0,-0.97656 0,-0.73242 0,-4.88281 0,-1.46485 0,-1.70898 0,-1.46485 0,-1.70898 0,-3.17383 0,-7.56836 0,-3.41797 0,-0.73242 0,-1.2207 0,-0.73242 0,-0.97657 0,-0.73242 0,-4.88281 1.46484,0.24414 z"
         style="font-size:125px"
         id="path4144" />
      <path
         d="m 526.5334,117.21866 0.73242,0 1.22071,0 0.73242,0 0.97656,0 0.73242,0 4.88282,0 1.70898,0 4.88281,0 1.70899,0 1.46484,0 1.2207,0 1.46485,0 0.97656,0 4.39453,0 2.68555,0 0.97656,0 0.97656,0 0.97657,0 0.97656,0 4.15039,0 1.95312,0 1.70899,0 0.73242,0.24414 0.73242,0 1.95313,0.24414 3.90625,0.97656 q 10.43701,4.57764 14.89257,13.67188 7.32422,17.33398 -7.08007,27.58789 10.37597,4.88281 12.69531,14.89258 4.15039,24.53613 -16.8457,33.6914 l -0.73243,0 q -2.86865,1.34278 -5.37109,1.46485 l -1.70898,0.48828 -0.73243,0 -6.10351,0.24414 -1.70899,0 -1.70898,0 -0.73242,0 -0.73242,0 -7.56836,0 -1.70899,0 -1.46484,0 -1.70899,0 -1.46484,0 -1.2207,0 -1.46485,0 -0.97656,0 -4.39453,0 -2.68555,0 -0.97656,0 -0.97656,0 -0.97656,0 -0.97657,0 -4.15039,0 -0.73242,0 -2.92969,0 0,-0.97656 0,-4.39454 0,-1.95312 0,-1.95313 0,-0.73242 0,-0.97656 0,-4.39453 0,-0.73242 0,-4.88282 0,-1.95312 0,-0.97656 0,-4.39453 0,-0.73243 0,-0.73242 0,-7.56836 0,-1.70898 0,-0.73242 0,-0.97657 0,-4.39453 0,-3.41797 0,-0.73242 0,-1.2207 0,-0.73242 0,-0.97657 0,-0.73242 0,-4.88281 0,-4.15039 0,-0.73242 0,-2.92969 0,-3.17383 0,-0.97656 0,-4.15039 0,-0.73242 0,-2.92969 0,-2.68555 0,-1.2207 0,-3.17383 0,-0.97656 0,-4.15039 0,-0.73242 0,-2.92969 3.41797,0 z m 15.625,37.59765 1.46485,0 1.2207,0 3.17383,0 0.97656,0 4.39453,0 3.41797,0 1.95312,0 0.73243,0 0.73242,0 0.73242,0 0.73242,0 2.92969,0 1.46484,-0.24414 q 8.05664,-4.08935 6.34766,-12.20703 -1.40381,-3.54004 -4.15039,-5.61523 -1.28174,-0.36621 -2.19727,-0.97656 l -0.97656,-0.24414 -0.73242,0 -0.73242,0 q -1.15967,-0.24415 -1.95313,-0.24415 l -1.2207,0 -4.15039,0 -0.97656,0 -1.22071,0 -3.17383,0 -0.97656,0 -4.15039,0 -0.73242,0 -2.92969,0 0,19.53125 z m 0,37.59766 4.15039,0 1.22071,0 0.73242,0 0.73242,0 3.17383,0 2.4414,0 0.73243,0 0.73242,0 2.4414,0 4.15039,0 q 3.23487,0 5.3711,-0.48828 8.48388,-4.45557 7.32422,-13.18359 -1.83106,-5.98145 -6.83594,-8.54493 -1.89209,-0.30517 -3.17383,-0.73242 l -4.15039,0 -0.97656,0 -0.97656,0 -0.73243,0 -4.39453,0 -3.17383,0 -0.97656,0 -4.15039,0 -0.73242,0 -2.92969,0 0,22.94922 z"
         style="font-size:125px"
         id="path4146" />
      <path
         d="m 641.21846,117.21866 3.17383,0 7.56836,0 3.41797,0 0.73242,0 1.2207,0 0.73242,0 0.97657,0 0.73242,0 4.88281,0 0,0.73242 q 1.0376,2.19727 1.46484,3.90625 l 0.48829,1.70898 0.24414,0.97657 q 0.24414,0.36621 0.24414,0.73242 0.24414,0.36621 0.24414,0.73242 0.24414,0.36621 0.24414,0.73242 0.61035,0.97657 0.73242,1.95313 l 1.46484,3.90625 0,0.73242 q 1.15967,2.2583 1.46485,4.15039 1.15966,2.68555 1.46484,4.63867 0.36621,0.73242 0.48828,1.46485 l 0.48828,0.97656 q 0.36621,1.2207 0.73243,1.95312 l 0,0.73243 q 0.24414,0.36621 0.24414,0.73242 0.61035,0.97656 0.73242,1.95312 l 1.46484,3.90625 0.24414,0.97656 0.24414,0.48829 0.48828,2.19726 0.48829,0.97656 0.48828,1.22071 0.24414,0.73242 0.24414,0.97656 0.48828,1.46485 q 0.36621,1.2207 0.73242,1.95312 l 0,0.73242 q 0.24414,0.36621 0.24414,0.73242 0.61035,0.97657 0.73242,1.95313 l 1.46485,3.90625 0.24414,1.46484 0.73242,1.46485 0.48828,1.46484 0,0.73242 0.48828,0.73242 0.24414,0.97657 0.24414,1.2207 q 1.89209,4.3335 2.44141,7.32422 0.24414,0.36621 0.24414,0.73242 1.89209,4.3335 2.44141,7.32422 l 0.48828,0.73242 0.24414,0.97656 0.24414,0.97657 0.24414,0.73242 0.24414,0.97656 q 0.24414,0.36621 0.24414,0.73242 0.24414,0.36621 0.24414,0.73242 0.24414,0.36622 0.24414,0.73243 l 0.48828,0.73242 0,0.73242 q 0.24414,0.36621 0.24414,0.73242 0.61036,0.97656 0.73243,1.95313 0.79345,1.83105 0.97656,2.92968 l 0.48828,1.46485 -1.46484,0 -0.97657,0 -4.39453,0 -2.68554,0 -0.97657,0 -0.97656,0 -0.97656,0 -0.97656,0 -4.1504,0 -0.73242,0 -2.92968,0 -0.48829,-1.46485 0,-0.97656 -0.48828,-0.73242 0,-0.73242 q -0.73242,-1.34278 -0.73242,-2.44141 l -0.48828,-0.73242 0,-0.73242 -0.24414,-0.97656 -0.73242,-1.70899 -1.70899,-6.10351 -4.39453,0 -4.88281,0 -1.70899,0 -1.46484,0 -1.2207,0 -1.46485,0 -0.97656,0 -4.39453,0 -2.68555,0 -0.97656,0 -0.97656,0 -0.97656,0 -0.97657,0 -4.15039,0 -0.73242,0 -2.92969,0 -0.24414,1.2207 -0.24414,1.2207 -0.48828,0.97656 q -0.30518,1.34278 -0.73242,2.44141 l -0.24414,1.2207 -0.24414,0.48828 -0.73242,2.44141 -0.24414,0.97656 -0.24415,0.73243 q -0.42724,1.28173 -0.73242,1.95312 l -0.73242,2.92969 -0.97656,0 -0.97656,0 -0.73243,0 -4.88281,0 -0.73242,0 -4.39453,0 -0.73242,0 -7.56836,0 0.48828,-1.95313 0.73242,-2.4414 0.24414,-0.73243 0.24414,-0.73242 0.24414,-0.73242 0.24414,-0.48828 1.22071,-3.90625 0.24414,-0.73242 0.24414,-0.73242 0.24414,-0.97657 0.48828,-0.97656 0.73242,-2.68555 0.24414,-0.73242 0.24414,-0.73242 0.24414,-0.73242 0.24414,-0.48828 q 0.73243,-2.80762 1.46485,-4.39453 l 0.48828,-1.70899 0.24414,-0.48828 q 0.73242,-2.80762 1.46484,-4.39453 0.30518,-1.2207 0.73242,-1.95313 l 0.48829,-1.95312 0.73242,-1.70899 0.48828,-1.95312 0.24414,-0.48828 q 0.73242,-2.80762 1.46484,-4.39453 l 0.48828,-1.95313 1.95313,-5.37109 0.48828,-1.70899 0.24414,-0.73242 0.24414,-0.73242 q 0.73242,-2.31934 1.46485,-3.90625 l 0.48828,-1.46484 0.24414,-0.73243 0,-0.73242 0.24414,-0.73242 1.70898,-4.39453 0.24414,-1.46484 0.48828,-1.22071 0.48829,-0.97656 q 0.48828,-2.31934 1.2207,-3.90625 l 0.24414,-1.2207 0.24414,-0.73242 0.24414,-0.48829 q 0.73242,-2.80761 1.46484,-4.39453 l 0.24415,-0.97656 0.24414,-0.97656 q 0.67138,-1.40381 0.97656,-2.68555 l 0.73242,-2.44141 0.24414,-0.73242 1.95313,-5.61523 1.70898,0 z m 10.49805,21.48437 -0.73242,2.68555 -0.24415,0.48828 -1.2207,4.39453 -1.46484,4.15039 -0.24414,0.48828 -1.46485,5.3711 -0.24414,0.97656 -1.46484,4.15039 -0.48828,1.2207 q -0.24414,1.95313 -0.97656,3.41797 -0.18311,1.40381 -0.73243,2.68555 l -0.24414,0.97656 q -0.48828,1.46485 -0.97656,2.44141 l -1.46484,5.37109 0.73242,0 0.97656,0 0.97656,0 0.97657,0 0.97656,0 4.15039,0 0.73242,0 2.92969,0 0.97656,0 2.68555,0 1.2207,0 0.73242,0 0.97657,0 0.73242,0 4.88281,0 -0.48828,-1.95312 -1.46485,-4.63867 -1.2207,-4.15039 q -0.91553,-2.31934 -1.2207,-3.90625 l -0.24414,-0.48829 q -0.48828,-1.77002 -0.97656,-2.92968 l -0.24415,-0.97657 -0.24414,-0.97656 -0.48828,-1.2207 -0.24414,-1.46485 -0.24414,-0.97656 -0.48828,-0.73242 -0.24414,-1.46484 -0.24414,-0.97657 q -0.36621,-0.73242 -0.48828,-1.46484 l -0.24414,-0.97656 q -0.91553,-1.83106 -1.22071,-3.41797 l -0.24414,-0.73242 -0.24414,-0.48828 -0.48828,-2.19727 -0.24414,-0.73242 -1.2207,-3.17383 -0.24414,1.2207 z"
         style="font-size:125px"
         id="path4148" />
      <path
         d="m 702.7419,116.97452 0.97656,0 0.73242,0 0.97656,0 4.39454,0 0.97656,0 4.39453,0 1.46484,0 1.70899,0 4.88281,0 1.95313,0 1.95312,0 1.95313,0 1.95312,0 4.88281,0 0.73242,0 0.73243,0 7.56836,0 1.70898,0 1.46484,0 1.70899,0 1.46484,0 1.22071,0 1.46484,0 0.97656,0 4.39453,0 2.68555,0 0.97656,0 0.97656,0 0.97657,0 0.97656,0 4.15039,0 0.73242,0 2.92969,0 0,18.55469 -1.46484,0 -0.73243,0 -4.88281,0 -3.17383,0 -0.97656,0 -4.39453,0 -0.97656,0 -0.97657,0 -0.97656,0 -4.15039,0 -0.73242,0 -2.92969,0 0,74.95117 -3.17383,0 -0.97656,0 -4.39453,0 -0.97656,0 -0.97656,0 -0.97657,0 -4.15039,0 -0.73242,0 -2.92969,0 0,-1.70899 0,-0.73242 0,-1.2207 0,-0.73242 0,-0.97657 0,-0.73242 0,-4.88281 0,-0.97656 0,-4.39453 0,-1.46485 0,-1.70898 0,-4.88282 0,-1.95312 0,-1.95313 0,-1.95312 0,-1.95313 0,-4.88281 0,-0.73242 0,-0.73242 0,-7.56836 0,-1.70899 0,-1.46484 0,-1.70898 0,-1.46485 0,-1.2207 0,-1.46484 0,-0.97657 0,-4.39453 0,-2.68554 0,-0.97657 0,-0.97656 0,-0.97656 0,-0.97656 0,-4.1504 0,-0.73242 0,-2.92968 -1.46484,0 -0.73242,0 -4.88282,0 -3.17382,0 -0.97657,0 -4.39453,0 -0.97656,0 -0.97656,0 -0.97656,0 -4.1504,0 -0.73242,0 -2.92968,0 0,-4.88282 0,-1.2207 0,-0.73242 0,-0.97656 0,-0.97657 0,-0.97656 0,-0.97656 0,-4.15039 0,-0.73242 0,-2.92969 0.97656,0 z"
         style="font-size:125px"
         id="path4150" />
      <path
         d="m 832.74678,114.77725 q 41.44287,0.30518 47.36328,42.48047 2.62451,37.8418 -26.61133,51.75781 -28.25927,10.25391 -48.0957,-8.05664 -21.11816,-23.80371 -11.71875,-54.6875 10.25391,-29.35791 39.0625,-31.49414 z m 0.48828,18.55469 q -23.4375,4.45557 -21.48437,34.17969 0.91552,17.57812 14.40429,24.90234 l 0.73243,0 q 1.15966,0.67139 2.19726,0.73242 l 0.48828,0.24414 2.92969,0.73243 q 25.75684,-0.24415 26.85547,-26.36719 2.2583,-33.56934 -26.12305,-34.42383 z"
         style="font-size:125px"
         id="path4152" />
      <path
         d="m 897.81026,116.97452 1.95312,0 4.88281,0 0.73243,0 0.73242,0 7.56836,0 1.70898,0 0.73242,0 3.17383,0 4.15039,0 0.97657,0 0.97656,0 4.39453,0 3.41797,0 0.73242,0 0.73242,0 0.73242,0 1.70899,0 0.97656,0 0.73242,0 0.73242,0 q 1.77002,0.30517 2.92969,0.24414 l 2.92969,0.48828 0.48828,0.24414 0.73242,0 0.48828,0.24414 3.66211,1.2207 q 11.23047,5.92041 14.89258,16.35743 7.20215,25.75683 -16.8457,36.86523 l 0.48828,0.24414 q 1.15967,2.38037 2.19726,3.90625 l 0.73243,1.46484 q 0.48828,0.79346 0.73242,1.46485 l 0.97656,1.46484 q 1.46484,2.19727 2.19727,3.90625 1.46484,1.83106 1.95312,3.41797 1.52588,1.95313 2.19727,3.41797 0.85449,1.40381 1.2207,2.44141 l 0.48828,0.73242 0.48828,0.97656 0.73242,0.73242 1.70899,3.17383 q 0.79346,1.28174 1.2207,2.19727 l 0.48828,0.73242 0.24414,0.48828 0.48829,0.48828 0.24414,0.73242 q 2.2583,3.35694 3.17382,5.85938 l -1.70898,0 -3.41797,0 -0.73242,0 -4.39453,0 -3.17383,0 -0.97656,0 -4.15039,0 -0.73243,0 -2.92968,0 -0.24414,-0.48828 -0.48828,-0.48829 -0.24415,-0.48828 -1.70898,-2.92968 -0.24414,-0.73243 q -1.15967,-1.4038 -1.46484,-2.68554 -1.46485,-1.52588 -1.95313,-3.17383 -1.46484,-1.83106 -1.95312,-3.41797 l -0.73243,-0.97656 -0.73242,-1.46485 -0.48828,-0.97656 q -1.52588,-1.83105 -2.19726,-3.17383 -0.8545,-1.89209 -1.70899,-3.17382 l -0.24414,-0.73243 q -1.40381,-1.52588 -1.95312,-3.17382 l -0.48829,-0.73243 -0.24414,-0.73242 -0.48828,-0.24414 -0.73242,-1.70898 q -0.30518,-0.24414 -0.24414,-0.48828 -1.83106,-2.38038 -2.68555,-4.39454 l -0.97656,0 -2.68555,0 -1.2207,0 -0.73242,0 -0.97656,0 -0.73243,0 -4.88281,0 0,36.37696 -3.17383,0 -0.97656,0 -4.39453,0 -0.97656,0 -0.97657,0 -0.97656,0 -4.15039,0 -0.73242,0 -2.92969,0 0,-0.97657 0,-4.39453 0,-1.95312 0,-1.95313 0,-0.73242 0,-0.97656 0,-4.39453 0,-0.73242 0,-4.88282 0,-1.95312 0,-0.97656 0,-4.39454 0,-0.73242 0,-0.73242 0,-7.56836 0,-1.70898 0,-0.73242 0,-0.97657 0,-4.39453 0,-3.41797 0,-0.73242 0,-1.2207 0,-0.73242 0,-0.97657 0,-0.73242 0,-4.88281 0,-4.15039 0,-0.73242 0,-2.92969 0,-3.17383 0,-0.97656 0,-4.15039 0,-0.73242 0,-2.92969 0,-2.68555 0,-1.2207 0,-3.17383 0,-0.97656 0,-4.15039 0,-0.73242 0,-2.92969 1.95313,0 z m 17.33398,39.55078 1.2207,0 1.70899,0 3.41797,0 0.73242,0 4.39453,0 3.17383,0 0.97656,0 4.15039,0 0.73242,0 2.92969,0 2.92969,-0.73242 q 7.26318,-4.5166 6.34766,-12.20703 -1.77002,-5.49317 -6.34766,-8.05664 l -0.73242,0 -0.48828,-0.24415 -3.17383,-0.73242 -1.22071,0 -3.41796,0 -1.22071,0 -0.97656,0 -4.39453,0 -0.97656,0 -0.97657,0 -0.97656,0 -4.15039,0 -0.73242,0 -2.92969,0 0,21.97266 z"
         style="font-size:125px"
         id="path4154" />
    </g>
  </g>
</svg>
