<?xml version="1.0" encoding="UTF-8" standalone="no"?>
<!-- Created with Inkscape (http://www.inkscape.org/) -->

<svg
   xmlns:dc="http://purl.org/dc/elements/1.1/"
   xmlns:cc="http://creativecommons.org/ns#"
   xmlns:rdf="http://www.w3.org/1999/02/22-rdf-syntax-ns#"
   xmlns:svg="http://www.w3.org/2000/svg"
   xmlns="http://www.w3.org/2000/svg"
   xmlns:sodipodi="http://sodipodi.sourceforge.net/DTD/sodipodi-0.dtd"
   xmlns:inkscape="http://www.inkscape.org/namespaces/inkscape"
   id="svg2"
   version="1.1"
   inkscape:version="0.91 r13725"
   width="98.439392cm"
   height="24.296698cm"
   xml:space="preserve"
   sodipodi:docname="FabLab.svg"><metadata
     id="metadata8"><rdf:RDF><cc:Work
         rdf:about=""><dc:format>image/svg+xml</dc:format><dc:type
           rdf:resource="http://purl.org/dc/dcmitype/StillImage" /><dc:title></dc:title></cc:Work></rdf:RDF></metadata><defs
     id="defs6" /><sodipodi:namedview
     pagecolor="#ffffff"
     bordercolor="#666666"
     borderopacity="1"
     objecttolerance="10"
     gridtolerance="10"
     guidetolerance="10"
     inkscape:pageopacity="0"
     inkscape:pageshadow="2"
     inkscape:window-width="1338"
     inkscape:window-height="756"
     id="namedview4"
     showgrid="false"
     fit-margin-top="0"
     fit-margin-left="4"
     fit-margin-right="4"
     fit-margin-bottom="0"
     inkscape:zoom="0.18"
     inkscape:cx="1615.5749"
     inkscape:cy="-90.148491"
     inkscape:window-x="75"
     inkscape:window-y="34"
     inkscape:window-maximized="0"
     inkscape:current-layer="g10"
     units="cm" /><g
     id="g10"
     inkscape:groupmode="layer"
     inkscape:label="ink_ext_XXXXXX"
     transform="matrix(1.25,0,0,-1.25,23.216272,861.46072)"><g
       transform="scale(1,-1)"
       style="font-style:normal;font-variant:normal;font-weight:normal;font-stretch:normal;font-size:350px;line-height:81.99999928%;font-family:Transport;-inkscape-font-specification:Transport;letter-spacing:-17.77599907px;word-spacing:0px;fill:#000000;fill-opacity:1;stroke:none;stroke-width:1px;stroke-linecap:butt;stroke-linejoin:miter;stroke-opacity:1"
       id="text4152"><path
         d="m 130.06538,-680.62366 45.11718,0 0,101.85547 116.21094,0 0,-101.85547 45.11719,0 0,261.13282 -45.11719,0 0,-118.94532 -116.21094,0 0,118.94532 -45.11718,0 0,-261.13282 z"
         style="fill:#000000"
         id="path4163"
         inkscape:connector-curvature="0" /><path
         d="m 546.37141,-569.88147 q 11.79199,28.19824 11.79199,55.54199 0,16.74805 -4.27246,32.6416 -11.79199,50.92774 -59.47266,63.57422 -7.00683,1.87989 -13.67187,2.73438 -6.66504,0.68359 -13.15918,0.85449 -25.29297,0 -46.31348,-13.84277 -39.47754,-27.51465 -41.69922,-73.14453 -0.1709,-2.39258 -0.1709,-4.61426 0,-2.39258 0,-4.61426 0,-85.44922 78.10059,-102.88086 1.53808,-0.1709 3.07617,-0.1709 1.53809,0 3.07617,0 55.3711,0 82.71485,43.9209 z m -124.41407,64.94141 q 5.63965,45.80078 46.48438,49.90234 41.87012,-3.93066 46.48437,-43.75 0.6836,-5.12695 1.19629,-9.91211 0.5127,-4.78516 0.3418,-9.22851 0,-51.78223 -51.44043,-55.3711 -43.5791,10.7666 -43.5791,57.93457 0,4.95606 0.51269,10.42481 z"
         id="path4165"
         inkscape:connector-curvature="0" /><path
         d="m 574.39619,-606.11194 43.0664,0 0.6836,4.10156 q 1.19629,3.24707 1.87988,5.98145 0.68359,2.56348 0.85449,4.95605 2.05078,5.63965 2.05078,9.57032 l 0.6836,2.73437 q 0.68359,0.85449 0.68359,2.05078 l 4.10156,16.40625 1.36719,6.83594 1.36719,3.41797 0,2.05078 q 1.19629,3.24707 1.87988,6.15234 0.68359,2.90528 0.85449,5.46875 l 0.6836,3.41797 q 2.73437,6.15235 2.73437,11.6211 l 0.6836,2.73437 1.36718,2.73438 0.6836,4.78515 q 1.36718,3.58887 1.36718,6.15235 l 0,0.68359 1.36719,5.46875 q 0.6836,0.5127 0.6836,1.02539 l 0,0.3418 3.41796,15.72265 0.6836,-1.36718 1.36719,-4.10157 q 0.85449,-5.12695 2.05078,-8.20312 l 0.68359,-4.78516 q 0.85449,-4.78515 2.05078,-7.51953 0.1709,-1.87988 0.3418,-3.58887 0.3418,-1.87988 1.02539,-3.24707 l 0,-2.05078 0.68359,-1.36718 2.05078,-10.25391 1.36719,-4.10156 0.6836,-4.10157 q 1.70898,-5.63964 2.05078,-9.57031 l 1.36718,-2.73437 0,-3.41797 0.6836,-2.73438 2.73437,-8.88672 0,-2.73437 q 1.87989,-5.12695 2.05078,-8.88672 1.70899,-5.63965 2.05079,-9.57031 l 0.68359,-2.05078 0.68359,-3.41797 0.6836,-2.05078 2.73437,-12.98828 4.10156,-0.6836 42.38282,0 1.36718,4.78516 0,2.05078 3.41797,12.30469 1.36719,8.20312 2.05078,6.83594 1.36719,8.20312 q 1.36719,3.24707 1.87988,5.98145 0.5127,2.73437 0.85449,4.95605 l 0.6836,4.10157 q 0.68359,0.85449 0.68359,2.05078 l 4.78516,19.82422 0.68359,2.73437 0,2.73438 1.36719,4.10156 0.68359,4.78516 3.41797,11.62109 2.73438,14.35547 q 1.02539,2.56347 2.05078,4.10156 l 1.36719,-5.46875 0,-2.05078 0.68359,-2.05078 2.73437,-12.98828 1.36719,-4.78516 0.6836,-4.10156 0.68359,-2.05078 0.68359,-1.36719 q 0.8545,-5.12695 2.05078,-8.20313 l 0,-2.05078 1.36719,-4.78515 2.73438,-12.30469 1.36718,-2.73438 0,-3.41796 1.36719,-2.73438 0.6836,-4.10156 0.68359,-3.41797 0.68359,-2.05078 2.73438,-12.98828 0.68359,-1.36719 2.05078,-8.20313 0.6836,-2.05078 0,-2.73437 2.73437,-8.20313 q 0.1709,-2.05078 0.3418,-3.93066 0.3418,-1.87988 1.02539,-3.58887 l 43.06641,0 -1.36719,4.10156 -0.6836,4.78516 -0.68359,1.36719 -4.78516,18.45703 -0.68359,1.36719 -3.41797,13.67187 -1.36719,4.10156 -4.10156,15.72266 -1.36719,4.78516 -2.05078,4.78515 -0.68359,4.78516 -1.36719,5.46875 -0.68359,1.36719 -1.36719,4.10156 -4.10156,16.40625 -0.6836,2.05078 -0.68359,1.36719 -4.10156,15.72265 -0.6836,2.05079 q -1.70898,8.03222 -4.10156,12.98828 l -0.68359,2.73437 -0.6836,4.78516 -1.36718,4.10156 -3.41797,12.30469 -1.36719,5.46875 -0.68359,1.36719 -4.10157,15.72265 -46.48437,0 -1.36719,-4.78515 -0.68359,-5.46875 -0.6836,-2.05079 0,-2.05078 q -1.70898,-3.93066 -2.05078,-8.20312 -1.70898,-5.46875 -2.05078,-10.25391 l -1.36719,-4.10156 0,-2.05078 q -2.39257,-5.98145 -2.73437,-11.6211 l -0.68359,-3.41796 -1.36719,-4.10157 -0.6836,-4.78515 -1.36718,-4.10157 -0.6836,-2.73437 0,-2.73438 q -2.39258,-5.98144 -2.73437,-11.62109 l -2.05078,-6.83594 0,-2.73437 q -1.53809,-3.75977 -2.05078,-6.83594 -1.0254,-7.34863 -2.73438,-11.62109 -0.85449,-6.15235 -2.73437,-10.25391 -0.6836,4.78516 -1.36719,8.54492 -0.5127,3.58887 -1.36719,6.49414 l -2.05078,9.57032 -1.36719,5.46875 -2.73437,14.35546 -1.36719,3.41797 -0.68359,4.78516 -2.05079,9.57031 -0.68359,4.10156 -1.36719,2.73438 -0.68359,3.41797 q -0.3418,2.56347 -0.68359,4.61426 -0.3418,2.05078 -0.6836,3.58886 l -1.36719,6.83594 -0.68359,2.73438 -0.68359,3.41796 -0.6836,2.05079 -0.68359,4.78515 -0.68359,2.05078 -1.36719,4.78516 0,2.05078 q -1.19629,4.27246 -1.36719,6.83594 -0.68359,1.70898 -1.02539,3.24707 -0.1709,1.53808 -0.3418,2.90527 l -46.48437,0 q -2.73438,-8.37402 -3.41797,-13.67187 -1.87988,-3.41797 -2.05078,-5.46875 l 0,-2.05078 q -0.3418,-0.3418 -0.5127,-0.5127 -0.1709,-0.3418 -0.1709,-0.68359 l 0,-0.1709 -3.41796,-10.9375 q -0.8545,-3.75977 -1.70899,-6.83594 -0.85449,-3.07617 -1.70898,-5.46875 l -0.6836,-4.78516 q -1.70898,-3.75976 -2.05078,-7.51953 -0.3418,-0.34179 -0.51269,-0.51269 -0.1709,-0.3418 -0.1709,-0.6836 l 0,-0.17089 q -1.19629,-3.24708 -1.87988,-5.81055 -0.6836,-2.56348 -0.8545,-4.44336 l -2.73437,-9.57031 -0.6836,-3.41797 q -0.68359,-0.85449 -0.68359,-2.05078 -1.87988,-3.41797 -2.05078,-5.46875 l 0,-2.05078 q -0.3418,-0.3418 -0.5127,-0.5127 -0.17089,-0.3418 -0.17089,-0.68359 l 0,-0.1709 -3.41797,-10.9375 q -0.6836,-3.93067 -1.53809,-7.00684 -0.85449,-3.24707 -1.87988,-5.98144 l -0.6836,-4.10157 -1.36718,-3.41796 -0.6836,-3.41797 -0.68359,-1.36719 0,-2.05078 q -2.05078,-3.93067 -2.05078,-6.83594 l -1.36719,-2.73437 -0.68359,-3.41797 -2.05078,-7.51953 -0.6836,-2.73438 -0.68359,-2.05078 -0.6836,-4.10156 q -0.68359,-0.8545 -0.68359,-2.05078 l -0.68359,-2.05079 -2.05078,-5.46875 0,-2.05078 q -2.90528,-8.03222 -3.41797,-12.98828 z"
         id="path4167"
         inkscape:connector-curvature="0" /><path
         d="m 996.1684,-677.88928 0,71.09375 49.2188,0 0,35.54687 -49.2188,0 0,95.70313 q 0,3.24707 0.1709,5.98144 0.1709,2.56348 0.5127,4.95606 9.9121,8.88672 23.4131,8.88672 9.3994,0 20.3369,-4.10157 l 0.6836,2.05079 0,4.10156 q 0.3418,1.53808 0.5127,3.07617 0.1709,1.36719 0.1709,2.73437 l 0,1.70899 q 0.6836,1.87988 0.8545,3.75976 0.3418,1.70899 0.5127,3.07618 l 2.0508,17.08984 q -10.5957,2.56348 -19.9952,3.93066 -9.2285,1.36719 -17.4316,1.36719 -33.3252,0 -48.02247,-21.7041 l -0.68359,-1.36719 -1.36719,-4.10156 q -1.87988,-4.44336 -2.73437,-8.20312 l 0,-2.05079 q -0.3418,-3.58886 -0.5127,-6.49414 -0.1709,-3.07617 -0.1709,-5.63965 l 0,-104.76074 -32.8125,0 0,-35.54687 32.8125,0 0,-59.47266 2.73438,-1.36719 5.46875,-1.36718 2.05078,-1.36719 3.41797,-0.68359 q 0.85449,-0.6836 2.05078,-0.6836 0.85449,-0.68359 2.05078,-0.68359 0.85449,-0.6836 2.05078,-0.6836 l 2.05078,-1.36718 5.46875,-1.36719 q 0.6836,-0.68359 1.19629,-0.68359 l 0.1709,0 q 0.6836,-0.6836 1.19629,-0.6836 l 0.1709,0 10.25391,-4.10156 q 1.36718,1.70898 1.36718,3.41797 z"
         id="path4169"
         inkscape:connector-curvature="0" /><path
         d="m 1225.1697,-569.88147 q 11.792,28.19824 11.792,55.54199 0,16.74805 -4.2724,32.6416 -11.792,50.92774 -59.4727,63.57422 -7.0068,1.87989 -13.6719,2.73438 -6.665,0.68359 -13.1591,0.85449 -25.293,0 -46.3135,-13.84277 -39.4775,-27.51465 -41.6992,-73.14453 -0.1709,-2.39258 -0.1709,-4.61426 0,-2.39258 0,-4.61426 0,-85.44922 78.1006,-102.88086 1.538,-0.1709 3.0761,-0.1709 1.5381,0 3.0762,0 55.3711,0 82.7148,43.9209 z m -124.414,64.94141 q 5.6396,45.80078 46.4844,49.90234 41.8701,-3.93066 46.4843,-43.75 0.6836,-5.12695 1.1963,-9.91211 0.5127,-4.78516 0.3418,-9.22851 0,-51.78223 -51.4404,-55.3711 -43.5791,10.7666 -43.5791,57.93457 0,4.95606 0.5127,10.42481 z"
         id="path4171"
         inkscape:connector-curvature="0" /><path
         d="m 1586.1021,-626.61975 -4.7851,2.05078 q -4.1016,2.73438 -6.836,3.41797 -0.6836,1.19629 -1.3672,1.36719 l -2.0507,0.68359 -1.3672,1.36719 -1.3672,0.68359 -4.1016,1.36719 -0.6836,1.36719 -8.2031,3.41797 q -4.1016,2.90527 -6.8359,3.41796 -1.8799,-3.07617 -2.7344,-6.15234 -0.3418,-0.3418 -0.5127,-0.5127 -0.1709,-0.34179 -0.1709,-0.68359 l 0,-0.1709 -1.3672,-0.68359 -6.1523,-9.57031 q -28.3692,-23.58399 -56.2256,-23.58399 -24.0967,0 -47.6807,17.43164 l -4.1015,2.73438 q -0.6836,1.19629 -1.3672,1.36719 -0.6836,1.19628 -1.3672,1.36718 l -1.3672,2.05078 -1.3672,0.6836 -0.6836,1.36719 q -1.8799,3.07617 -3.5889,5.46875 -1.7089,2.39257 -3.247,4.10156 -11.1084,32.9834 -11.1084,63.74511 0,30.76172 11.1084,59.98536 l 1.3672,0.68359 q 4.956,9.05762 10.9375,14.35547 24.7802,21.19141 51.9531,21.19141 13.501,0 28.0273,-5.46875 38.794,-15.03907 38.794,-54.51661 0,-3.41797 -0.3418,-7.00683 -0.1709,-3.58887 -0.8545,-7.51953 l -74.5117,0 0,-40.33203 114.8437,0 0,147.65625 -40.332,0 q 0.1709,-2.05079 0.1709,-3.93067 l 0,-3.93066 q 0,-3.93067 -0.1709,-7.17774 -0.1709,-3.41797 -0.6836,-6.15234 -8.374,13.50098 -20.5078,20.50781 l -2.7344,0.6836 q -7.3486,4.61425 -16.4062,6.15234 -6.4942,1.02539 -12.8174,1.53808 -6.1524,0.3418 -12.1338,0.3418 -49.5606,0 -82.3731,-32.6416 -31.7871,-32.8125 -35.5468,-73.82812 -1.3672,-10.25391 -2.2217,-19.65333 -0.6836,-9.39941 -0.6836,-18.45703 0,-96.04492 84.2529,-129.37011 l 6.836,-0.6836 2.0507,-0.68359 2.0508,0 2.0508,-0.68359 q 7.0068,-0.1709 12.3047,-1.36719 2.5635,-0.1709 4.956,-0.1709 2.5635,-0.1709 5.127,-0.1709 74.8535,0 106.1279,62.54883 z"
         id="path4173"
         inkscape:connector-curvature="0" /><path
         d="m 1731.705,-610.89709 0,43.75 q -1.3672,-0.1709 -2.9052,-0.1709 l -2.9053,0 q -34.0088,0 -48.877,28.19824 l -2.0508,10.9375 -0.6836,4.78516 0,102.53906 -41.6992,0 0,-185.9375 41.6992,0 0,10.4248 q 0,4.78516 0.6836,8.03223 19.8243,-22.55859 47.8516,-22.55859 l 8.8867,0 z"
         id="path4175"
         inkscape:connector-curvature="0" /><path
         d="m 1917.64,-569.88147 q 11.792,28.19824 11.792,55.54199 0,16.74805 -4.2725,32.6416 -11.792,50.92774 -59.4727,63.57422 -7.0068,1.87989 -13.6718,2.73438 -6.6651,0.68359 -13.1592,0.85449 -25.293,0 -46.3135,-13.84277 -39.4775,-27.51465 -41.6992,-73.14453 -0.1709,-2.39258 -0.1709,-4.61426 0,-2.39258 0,-4.61426 0,-85.44922 78.1006,-102.88086 1.5381,-0.1709 3.0761,-0.1709 1.5381,0 3.0762,0 55.3711,0 82.7149,43.9209 z m -124.4141,64.94141 q 5.6396,45.80078 46.4844,49.90234 41.8701,-3.93066 46.4843,-43.75 0.6836,-5.12695 1.1963,-9.91211 0.5127,-4.78516 0.3418,-9.22851 0,-51.78223 -51.4404,-55.3711 -43.5791,10.7666 -43.5791,57.93457 0,4.95606 0.5127,10.42481 z"
         id="path4177"
         inkscape:connector-curvature="0" /><path
         d="m 1945.6647,-606.11194 43.0664,0 0.6836,4.10156 q 1.1963,3.24707 1.8799,5.98145 0.6836,2.56348 0.8545,4.95605 2.0508,5.63965 2.0508,9.57032 l 0.6836,2.73437 q 0.6836,0.85449 0.6836,2.05078 l 4.1015,16.40625 1.3672,6.83594 1.3672,3.41797 0,2.05078 q 1.1963,3.24707 1.8799,6.15234 0.6836,2.90528 0.8545,5.46875 l 0.6836,3.41797 q 2.7344,6.15235 2.7344,11.6211 l 0.6836,2.73437 1.3671,2.73438 0.6836,4.78515 q 1.3672,3.58887 1.3672,6.15235 l 0,0.68359 1.3672,5.46875 q 0.6836,0.5127 0.6836,1.02539 l 0,0.3418 3.418,15.72265 0.6836,-1.36718 1.3672,-4.10157 q 0.8545,-5.12695 2.0507,-8.20312 l 0.6836,-4.78516 q 0.8545,-4.78515 2.0508,-7.51953 0.1709,-1.87988 0.3418,-3.58887 0.3418,-1.87988 1.0254,-3.24707 l 0,-2.05078 0.6836,-1.36718 2.0508,-10.25391 1.3672,-4.10156 0.6836,-4.10157 q 1.7089,-5.63964 2.0507,-9.57031 l 1.3672,-2.73437 0,-3.41797 0.6836,-2.73438 2.7344,-8.88672 0,-2.73437 q 1.8799,-5.12695 2.0508,-8.88672 1.709,-5.63965 2.0508,-9.57031 l 0.6836,-2.05078 0.6835,-3.41797 0.6836,-2.05078 2.7344,-12.98828 4.1016,-0.6836 42.3828,0 1.3672,4.78516 0,2.05078 3.4179,12.30469 1.3672,8.20312 2.0508,6.83594 1.3672,8.20312 q 1.3672,3.24707 1.8799,5.98145 0.5127,2.73437 0.8545,4.95605 l 0.6836,4.10157 q 0.6836,0.85449 0.6836,2.05078 l 4.7851,19.82422 0.6836,2.73437 0,2.73438 1.3672,4.10156 0.6836,4.78516 3.418,11.62109 2.7343,14.35547 q 1.0254,2.56347 2.0508,4.10156 l 1.3672,-5.46875 0,-2.05078 0.6836,-2.05078 2.7344,-12.98828 1.3672,-4.78516 0.6836,-4.10156 0.6836,-2.05078 0.6835,-1.36719 q 0.8545,-5.12695 2.0508,-8.20313 l 0,-2.05078 1.3672,-4.78515 2.7344,-12.30469 1.3672,-2.73438 0,-3.41796 1.3672,-2.73438 0.6836,-4.10156 0.6836,-3.41797 0.6835,-2.05078 2.7344,-12.98828 0.6836,-1.36719 2.0508,-8.20313 0.6836,-2.05078 0,-2.73437 2.7344,-8.20313 q 0.1709,-2.05078 0.3418,-3.93066 0.3418,-1.87988 1.0254,-3.58887 l 43.0664,0 -1.3672,4.10156 -0.6836,4.78516 -0.6836,1.36719 -4.7852,18.45703 -0.6836,1.36719 -3.4179,13.67187 -1.3672,4.10156 -4.1016,15.72266 -1.3672,4.78516 -2.0508,4.78515 -0.6835,4.78516 -1.3672,5.46875 -0.6836,1.36719 -1.3672,4.10156 -4.1016,16.40625 -0.6836,2.05078 -0.6836,1.36719 -4.1015,15.72265 -0.6836,2.05079 q -1.709,8.03222 -4.1016,12.98828 l -0.6836,2.73437 -0.6836,4.78516 -1.3672,4.10156 -3.4179,12.30469 -1.3672,5.46875 -0.6836,1.36719 -4.1016,15.72265 -46.4843,0 -1.3672,-4.78515 -0.6836,-5.46875 -0.6836,-2.05079 0,-2.05078 q -1.709,-3.93066 -2.0508,-8.20312 -1.709,-5.46875 -2.0508,-10.25391 l -1.3672,-4.10156 0,-2.05078 q -2.3925,-5.98145 -2.7343,-11.6211 l -0.6836,-3.41796 -1.3672,-4.10157 -0.6836,-4.78515 -1.3672,-4.10157 -0.6836,-2.73437 0,-2.73438 q -2.3926,-5.98144 -2.7344,-11.62109 l -2.0508,-6.83594 0,-2.73437 q -1.538,-3.75977 -2.0507,-6.83594 -1.0254,-7.34863 -2.7344,-11.62109 -0.8545,-6.15235 -2.7344,-10.25391 -0.6836,4.78516 -1.3672,8.54492 -0.5127,3.58887 -1.3672,6.49414 l -2.0507,9.57032 -1.3672,5.46875 -2.7344,14.35546 -1.3672,3.41797 -0.6836,4.78516 -2.0508,9.57031 -0.6836,4.10156 -1.3672,2.73438 -0.6835,3.41797 q -0.3418,2.56347 -0.6836,4.61426 -0.3418,2.05078 -0.6836,3.58886 l -1.3672,6.83594 -0.6836,2.73438 -0.6836,3.41796 -0.6836,2.05079 -0.6836,4.78515 -0.6836,2.05078 -1.3672,4.78516 0,2.05078 q -1.1963,4.27246 -1.3672,6.83594 -0.6836,1.70898 -1.0254,3.24707 -0.1709,1.53808 -0.3418,2.90527 l -46.4843,0 q -2.7344,-8.37402 -3.418,-13.67187 -1.8799,-3.41797 -2.0508,-5.46875 l 0,-2.05078 q -0.3418,-0.3418 -0.5127,-0.5127 -0.1709,-0.3418 -0.1709,-0.68359 l 0,-0.1709 -3.4179,-10.9375 q -0.8545,-3.75977 -1.709,-6.83594 -0.8545,-3.07617 -1.709,-5.46875 l -0.6836,-4.78516 q -1.709,-3.75976 -2.0508,-7.51953 -0.3418,-0.34179 -0.5127,-0.51269 -0.1709,-0.3418 -0.1709,-0.6836 l 0,-0.17089 q -1.1963,-3.24708 -1.8799,-5.81055 -0.6836,-2.56348 -0.8545,-4.44336 l -2.7343,-9.57031 -0.6836,-3.41797 q -0.6836,-0.85449 -0.6836,-2.05078 -1.8799,-3.41797 -2.0508,-5.46875 l 0,-2.05078 q -0.3418,-0.3418 -0.5127,-0.5127 -0.1709,-0.3418 -0.1709,-0.68359 l 0,-0.1709 -3.418,-10.9375 q -0.6836,-3.93067 -1.538,-7.00684 -0.8545,-3.24707 -1.8799,-5.98144 l -0.6836,-4.10157 -1.3672,-3.41796 -0.6836,-3.41797 -0.6836,-1.36719 0,-2.05078 q -2.0508,-3.93067 -2.0508,-6.83594 l -1.3672,-2.73437 -0.6836,-3.41797 -2.0507,-7.51953 -0.6836,-2.73438 -0.6836,-2.05078 -0.6836,-4.10156 q -0.6836,-0.8545 -0.6836,-2.05078 l -0.6836,-2.05079 -2.0508,-5.46875 0,-2.05078 q -2.9053,-8.03222 -3.418,-12.98828 z"
         id="path4179"
         inkscape:connector-curvature="0" /><path
         d="m 183.21479,-394.30725 55.37109,0 1.36719,5.46875 q 0.6836,1.19629 0.85449,2.39257 0.3418,1.19629 0.5127,2.39258 l 1.36719,2.73438 2.05078,6.83594 0.68359,1.36718 0.6836,2.73438 0.68359,2.05078 0.68359,2.73437 2.05078,4.78516 0.6836,1.36719 0,2.05078 q 1.36719,2.39258 2.05078,4.78516 0.85449,2.22167 1.36719,4.10156 l 0.68359,2.73437 0.68359,1.36719 0,2.05078 q 1.36719,2.39258 2.05079,4.78516 0.85449,2.22168 1.36718,4.10156 l 1.36719,5.46875 q 2.56348,4.44336 2.73438,8.20313 l 2.05078,4.78515 1.36718,5.46875 1.36719,4.78516 q 0.6836,0.85449 0.6836,2.05078 l 1.36718,2.05078 0.6836,2.73438 q 0.34179,1.70898 1.02539,3.07617 0.68359,1.36718 1.02539,2.39258 l 0,2.05078 q 3.41797,6.32324 4.10156,12.30468 1.19629,2.22168 1.36719,4.10157 1.19629,2.22168 1.36719,4.10156 l 2.73437,8.20312 0.68359,1.36719 0.6836,2.73438 0.68359,2.05078 0.6836,2.73437 2.05078,4.78516 0.68359,1.36719 0,2.05078 q 1.36719,2.39258 2.22168,4.78515 0.85449,2.22168 1.19629,4.10157 l 0.68359,4.10156 q 2.73438,5.29785 3.41797,9.57031 3.24707,7.34863 4.10156,12.98828 1.19629,2.22168 1.36719,4.10157 l 2.05078,4.10156 1.36719,4.10156 q 0.85449,4.10156 2.05078,6.83594 l 1.36719,6.15234 2.05078,4.10156 1.36719,6.15235 1.36719,2.73437 0.68359,2.73438 q 1.87988,4.44336 3.07617,8.37402 1.19629,3.93067 1.70899,7.34863 l 1.36718,2.05079 0,2.05078 q 0.6836,0.85449 0.6836,2.05078 1.87988,2.90527 2.05078,5.46875 2.22168,4.78515 2.73437,8.20312 l -45.11718,0 -0.6836,-2.73437 -1.36719,-2.73438 -0.68359,-4.10156 q -0.68359,-0.85449 -0.68359,-2.05078 -3.24707,-6.49414 -4.10157,-12.30469 l -1.36718,-2.05078 -0.6836,-2.73437 q -0.34179,-1.70899 -1.02539,-3.07618 -0.51269,-1.36718 -1.02539,-2.39257 l 0,-2.05079 q -3.24707,-6.49414 -4.10156,-12.30468 l -103.90625,0 -0.68359,2.73437 -1.36719,2.73438 -0.6836,3.41797 -0.68359,2.73437 q -0.85449,1.87988 -1.70898,3.75977 -0.6836,1.87988 -1.02539,3.75976 l -0.6836,2.05078 -1.36719,2.73438 q -0.34179,1.87988 -0.68359,2.73437 l -0.68359,2.73438 -0.6836,2.05078 -0.68359,1.36719 -4.78516,15.72265 -45.117185,0 0,-2.05078 1.367188,-4.10156 0.683597,-2.73438 q 1.53808,-3.41796 2.05078,-5.46875 l 0.68359,-1.36718 1.36719,-5.46875 1.36719,-4.78516 4.10156,-11.62109 2.05078,-6.83594 1.36719,-4.10156 q 1.53808,-3.41797 2.05078,-5.46875 l 2.73437,-8.20313 5.46875,-17.08984 4.10157,-12.98828 q 1.70898,-3.75977 2.56347,-6.83594 0.8545,-3.07617 1.53809,-5.46875 l 0.68359,-2.73438 1.36719,-2.05078 q 0.5127,-3.93066 2.05078,-7.51953 l 1.36719,-4.10156 0.68359,-2.73438 q 1.53809,-3.41796 2.05078,-5.46875 l 0.6836,-1.36718 1.36719,-5.46875 1.36718,-4.78516 2.05078,-4.78516 2.05079,-6.83593 2.05078,-6.15235 0.68359,-1.36718 4.10156,-12.98829 0.6836,-2.73437 5.46875,-17.08984 q 2.22168,-4.61426 2.73437,-8.20313 l 7.51953,-21.19141 0,-2.05078 1.36719,-3.41797 0.68359,-2.05078 0.6836,-2.73437 1.36719,-2.73438 0.68359,-2.05078 0.68359,-2.73437 0.6836,-2.05078 0.68359,-2.73438 2.05078,-4.78516 2.05078,-8.20312 1.36719,-4.10156 z m 27.34375,57.42187 -4.10156,11.6211 -1.36719,4.78515 -2.05078,4.78516 -0.68359,4.10156 -1.36719,4.10156 -2.05078,4.10157 -0.6836,4.10156 -2.05078,4.10156 0,2.05078 -1.36719,2.05078 q -1.70898,8.88672 -4.10156,14.35547 l -0.68359,2.73438 -1.36719,3.41797 -4.10156,11.62109 -2.05078,7.51953 -1.36719,3.41797 -0.68359,2.73437 -1.36719,3.41797 -0.6836,2.73438 -2.05078,6.15234 -0.68359,1.36719 q -2.05078,7.86133 -4.10156,12.30469 l 78.61328,0 -1.36719,-5.46875 -2.05078,-4.78516 -1.36719,-4.78516 -2.05078,-4.78515 -3.41797,-11.6211 -1.36719,-5.46875 -2.05078,-4.78515 -0.68359,-3.41797 q -1.19629,-2.05078 -1.36719,-3.41797 l -3.41797,-9.57031 -0.68359,-2.73438 -1.36719,-2.73437 0,-2.05078 -4.10156,-10.9375 -0.68359,-4.10157 q -1.19629,-2.22168 -1.36719,-4.10156 l -2.05078,-4.10156 -1.36719,-6.15234 q -0.68359,-0.8545 -0.68359,-2.05079 -0.6836,-0.85449 -0.6836,-2.05078 l -1.36719,-2.05078 0,-2.05078 q -1.70898,-3.75977 -2.05078,-6.83594 -0.34179,-0.34179 -0.51269,-0.51269 -0.1709,-0.3418 -0.1709,-0.6836 l 0,-0.17089 -3.41797,-8.20313 0,2.05078 z"
         style="fill:#000000"
         id="path4181"
         inkscape:connector-curvature="0" /><path
         d="m 344.02766,-394.99085 41.69922,0 0,189.35547 q -0.1709,2.22168 -0.1709,4.27246 l 0,3.93067 q 0,11.62109 1.53808,19.82422 7.34864,9.39941 22.5586,9.39941 6.49414,0 15.03906,-1.87988 l 0,4.10156 0.68359,2.05078 1.36719,9.57031 0,4.10157 0.68359,1.36718 0,4.10157 2.05079,11.62109 q -18.96973,4.61426 -33.8379,4.61426 -39.64843,0 -50.92773,-32.6416 -0.1709,-1.70899 -0.3418,-3.07618 0,-1.36718 -0.34179,-2.39257 l 0,-228.32032 z"
         style="fill:#000000"
         id="path4183"
         inkscape:connector-curvature="0" /><path
         d="m 572.34541,-299.97132 q 23.92578,-23.07129 50.92773,-23.07129 6.49414,0 12.98828,1.36719 6.49414,1.36719 13.33008,3.93067 19.99512,8.37402 30.76172,24.60937 l 0.68359,1.36719 1.36719,4.10156 0.68359,1.36719 4.10157,12.98828 q 0.34179,3.93066 0.51269,7.34863 0.1709,3.41797 0.1709,6.32325 l 0,125.78125 -41.01563,0 0,-116.21094 -1.36718,-11.6211 q -2.22168,-3.75976 -2.73438,-7.51953 -10.08301,-16.23535 -23.92578,-16.23535 -8.37402,0 -18.45703,5.98145 -10.08301,7.51953 -14.35547,17.08984 l -1.36719,8.20313 0,120.3125 -41.69922,0 0,-120.9961 -0.68359,-6.15234 -1.36719,-2.73438 0,-2.05078 q -1.70898,-2.73437 -2.90527,-4.95605 -1.19629,-2.39258 -1.87988,-4.61426 -9.57032,-9.05762 -21.19141,-9.57031 -22.38769,3.07617 -32.12891,21.1914 l -1.36718,4.78516 -0.6836,7.51953 q 0.5127,1.36719 0.6836,2.56348 0.1709,1.02539 0.1709,2.22168 0,1.36718 -0.1709,2.05078 l 0,110.74219 -42.38282,0 0,-186.6211 42.38282,0 0,13.67188 q 18.96972,-14.18457 39.64843,-16.40625 l 0.6836,0 q 33.15429,0 50.58594,23.24218 z"
         style="fill:#000000"
         id="path4185"
         inkscape:connector-curvature="0" /><path
         d="m 884.74519,-282.88147 q 11.79199,28.19824 11.79199,55.54199 0,16.74805 -4.27246,32.6416 -11.792,50.92774 -59.47266,63.57422 -7.00684,1.87988 -13.67187,2.73438 -6.66504,0.68359 -13.15918,0.85449 -25.29297,0 -46.31348,-13.84278 -39.47754,-27.51464 -41.69922,-73.14453 -0.1709,-2.39258 -0.1709,-4.61426 0,-2.39257 0,-4.61425 0,-85.44922 78.10059,-102.88086 1.53808,-0.1709 3.07617,-0.1709 1.53809,0 3.07617,0 55.3711,0 82.71485,43.9209 z m -124.41407,64.9414 q 5.63965,45.80079 46.48438,49.90235 41.87012,-3.93067 46.48437,-43.75 0.6836,-5.12696 1.19629,-9.91211 0.5127,-4.78516 0.3418,-9.22852 0,-51.78222 -51.44043,-55.37109 -43.5791,10.7666 -43.5791,57.93457 0,4.95605 0.51269,10.4248 z"
         style="fill:#000000"
         id="path4187"
         inkscape:connector-curvature="0" /><path
         d="m 1062.477,-297.23694 -2.0508,2.73437 -2.0508,2.05079 -2.0507,1.36718 -2.7344,4.10157 -1.3672,1.36718 -1.3672,0.6836 q -2.2217,3.07617 -4.1016,4.78515 l -8.8867,10.25391 q -28.3691,-18.28613 -46.99705,-18.28613 -19.14062,0 -28.19824,18.96972 0.3418,11.1084 8.88672,16.40625 3.75976,1.02539 5.46875,2.05078 6.66504,1.02539 10.9375,2.73438 64.77052,4.78516 72.46092,51.95312 0.3418,2.05079 0.3418,4.10157 0,1.87988 0,3.75976 0,34.35059 -29.0527,51.61133 -20.8496,9.39941 -41.87014,9.39941 -39.99023,0 -79.80957,-34.00878 l 1.36719,-2.73438 3.41797,-3.41797 q 3.41797,-4.10156 6.15234,-6.15234 0.68359,-1.19629 1.36719,-1.36719 l 1.36719,-2.05078 q 0.68359,-1.19629 1.36718,-1.36719 l 0.6836,-1.36719 1.36718,-0.68359 8.88672,-10.25391 q 25.29297,23.92579 52.97852,23.92579 11.62113,0 23.58403,-4.10157 3.0761,-4.10156 6.1523,-6.15234 1.0254,-4.10156 1.0254,-7.69043 0,-8.88672 -5.8106,-14.86816 l -15.72262,-5.46875 q -70.41015,-4.27247 -76.5625,-60.15625 4.61426,-56.22559 63.57422,-60.15625 l 2.39258,0 q 45.28812,0 74.85352,28.02734 z"
         style="fill:#000000"
         id="path4189"
         inkscape:connector-curvature="0" /><path
         d="m 1150.658,-390.88928 0,71.09375 49.2188,0 0,35.54687 -49.2188,0 0,95.70313 q 0,3.24707 0.1709,5.98144 0.1709,2.56348 0.5127,4.95606 9.9121,8.88671 23.4131,8.88671 9.3994,0 20.3369,-4.10156 l 0.6836,2.05078 0,4.10157 q 0.3418,1.53808 0.5127,3.07617 0.1709,1.36718 0.1709,2.73437 l 0,1.70899 q 0.6836,1.87988 0.8545,3.75976 0.3418,1.70899 0.5127,3.07617 l 2.0508,17.08985 q -10.5957,2.56347 -19.9951,3.93066 -9.2286,1.36719 -17.4317,1.36719 -33.3252,0 -48.0224,-21.7041 l -0.6836,-1.36719 -1.3672,-4.10156 q -1.8799,-4.44336 -2.7344,-8.20313 l 0,-2.05078 q -0.3418,-3.58887 -0.5127,-6.49414 -0.1709,-3.07617 -0.1709,-5.63965 l 0,-104.76074 -32.8125,0 0,-35.54687 32.8125,0 0,-59.47266 2.7344,-1.36719 5.4687,-1.36719 2.0508,-1.36718 3.418,-0.6836 q 0.8545,-0.68359 2.0508,-0.68359 0.8545,-0.68359 2.0507,-0.68359 0.8545,-0.6836 2.0508,-0.6836 l 2.0508,-1.36719 5.4688,-1.36718 q 0.6836,-0.6836 1.1962,-0.6836 l 0.1709,0 q 0.6836,-0.68359 1.1963,-0.68359 l 0.1709,0 10.2539,-4.10156 q 1.3672,1.70898 1.3672,3.41797 z"
         style="fill:#000000"
         id="path4191"
         inkscape:connector-curvature="0" /><path
         d="m 1387.0054,-394.30725 55.3711,0 1.3672,5.46875 q 0.6836,1.19629 0.8545,2.39257 0.3418,1.19629 0.5127,2.39258 l 1.3672,2.73438 2.0508,6.83594 0.6836,1.36718 0.6836,2.73438 0.6836,2.05078 0.6836,2.73437 2.0507,4.78516 0.6836,1.36719 0,2.05078 q 1.3672,2.39258 2.0508,4.78516 0.8545,2.22167 1.3672,4.10156 l 0.6836,2.73437 0.6836,1.36719 0,2.05078 q 1.3672,2.39258 2.0508,4.78516 0.8545,2.22168 1.3672,4.10156 l 1.3671,5.46875 q 2.5635,4.44336 2.7344,8.20313 l 2.0508,4.78515 1.3672,5.46875 1.3672,4.78516 q 0.6836,0.85449 0.6836,2.05078 l 1.3672,2.05078 0.6835,2.73438 q 0.3418,1.70898 1.0254,3.07617 0.6836,1.36718 1.0254,2.39258 l 0,2.05078 q 3.418,6.32324 4.1016,12.30468 1.1963,2.22168 1.3672,4.10157 1.1963,2.22168 1.3672,4.10156 l 2.7343,8.20312 0.6836,1.36719 0.6836,2.73438 0.6836,2.05078 0.6836,2.73437 2.0508,4.78516 0.6836,1.36719 0,2.05078 q 1.3672,2.39258 2.2217,4.78515 0.8545,2.22168 1.1963,4.10157 l 0.6836,4.10156 q 2.7343,5.29785 3.4179,9.57031 3.2471,7.34863 4.1016,12.98828 1.1963,2.22168 1.3672,4.10157 l 2.0508,4.10156 1.3671,4.10156 q 0.8545,4.10156 2.0508,6.83594 l 1.3672,6.15234 2.0508,4.10156 1.3672,6.15235 1.3672,2.73437 0.6836,2.73438 q 1.8798,4.44336 3.0761,8.37402 1.1963,3.93067 1.709,7.34863 l 1.3672,2.05079 0,2.05078 q 0.6836,0.85449 0.6836,2.05078 1.8799,2.90527 2.0508,5.46875 2.2217,4.78515 2.7344,8.20312 l -45.1172,0 -0.6836,-2.73437 -1.3672,-2.73438 -0.6836,-4.10156 q -0.6836,-0.85449 -0.6836,-2.05078 -3.2471,-6.49414 -4.1016,-12.30469 l -1.3672,-2.05078 -0.6835,-2.73437 q -0.3418,-1.70899 -1.0254,-3.07618 -0.5127,-1.36718 -1.0254,-2.39257 l 0,-2.05079 q -3.2471,-6.49414 -4.1016,-12.30468 l -103.9062,0 -0.6836,2.73437 -1.3672,2.73438 -0.6836,3.41797 -0.6836,2.73437 q -0.8545,1.87988 -1.709,3.75977 -0.6836,1.87988 -1.0254,3.75976 l -0.6836,2.05078 -1.3672,2.73438 q -0.3418,1.87988 -0.6836,2.73437 l -0.6836,2.73438 -0.6835,2.05078 -0.6836,1.36719 -4.7852,15.72265 -45.1172,0 0,-2.05078 1.3672,-4.10156 0.6836,-2.73438 q 1.5381,-3.41796 2.0508,-5.46875 l 0.6836,-1.36718 1.3672,-5.46875 1.3671,-4.78516 4.1016,-11.62109 2.0508,-6.83594 1.3672,-4.10156 q 1.5381,-3.41797 2.0508,-5.46875 l 2.7343,-8.20313 5.4688,-17.08984 4.1015,-12.98828 q 1.709,-3.75977 2.5635,-6.83594 0.8545,-3.07617 1.5381,-5.46875 l 0.6836,-2.73438 1.3672,-2.05078 q 0.5127,-3.93066 2.0508,-7.51953 l 1.3672,-4.10156 0.6836,-2.73438 q 1.538,-3.41796 2.0507,-5.46875 l 0.6836,-1.36718 1.3672,-5.46875 1.3672,-4.78516 2.0508,-4.78516 2.0508,-6.83593 2.0507,-6.15235 0.6836,-1.36718 4.1016,-12.98829 0.6836,-2.73437 5.4687,-17.08984 q 2.2217,-4.61426 2.7344,-8.20313 l 7.5196,-21.19141 0,-2.05078 1.3671,-3.41797 0.6836,-2.05078 0.6836,-2.73437 1.3672,-2.73438 0.6836,-2.05078 0.6836,-2.73437 0.6836,-2.05078 0.6836,-2.73438 2.0508,-4.78516 2.0508,-8.20312 1.3671,-4.10156 z m 27.3438,57.42187 -4.1016,11.6211 -1.3672,4.78515 -2.0507,4.78516 -0.6836,4.10156 -1.3672,4.10156 -2.0508,4.10157 -0.6836,4.10156 -2.0508,4.10156 0,2.05078 -1.3672,2.05078 q -1.709,8.88672 -4.1015,14.35547 l -0.6836,2.73438 -1.3672,3.41797 -4.1016,11.62109 -2.0508,7.51953 -1.3671,3.41797 -0.6836,2.73437 -1.3672,3.41797 -0.6836,2.73438 -2.0508,6.15234 -0.6836,1.36719 q -2.0508,7.86133 -4.1016,12.30469 l 78.6133,0 -1.3672,-5.46875 -2.0507,-4.78516 -1.3672,-4.78516 -2.0508,-4.78515 -3.418,-11.6211 -1.3672,-5.46875 -2.0507,-4.78515 -0.6836,-3.41797 q -1.1963,-2.05078 -1.3672,-3.41797 l -3.418,-9.57031 -0.6836,-2.73438 -1.3672,-2.73437 0,-2.05078 -4.1015,-10.9375 -0.6836,-4.10157 q -1.1963,-2.22168 -1.3672,-4.10156 l -2.0508,-4.10156 -1.3672,-6.15234 q -0.6836,-0.8545 -0.6836,-2.05079 -0.6836,-0.85449 -0.6836,-2.05078 l -1.3672,-2.05078 0,-2.05078 q -1.709,-3.75977 -2.0507,-6.83594 -0.3418,-0.34179 -0.5127,-0.51269 -0.1709,-0.3418 -0.1709,-0.6836 l 0,-0.17089 -3.418,-8.20313 0,2.05078 z"
         id="path4193"
         inkscape:connector-curvature="0" /><path
         d="m 1700.2597,-286.98303 0,2.05078 q 2.2217,4.10156 2.7344,8.20312 l 0,142.8711 -41.6992,0 0,-120.9961 -0.6836,-4.10156 q -8.5449,-25.80567 -28.711,-25.80567 -6.1523,0 -13.6718,2.56348 -17.0899,7.34863 -24.6094,23.24219 l -2.7344,11.62109 0,113.47657 -41.0156,0 0,-186.6211 41.0156,0 0,15.72266 q 19.1406,-17.08985 41.6992,-20.50781 l 3.0762,0 q 45.8008,0 64.5996,38.28125 z"
         id="path4195"
         inkscape:connector-curvature="0" /><path
         d="m 1715.2962,-319.11194 43.75,0 2.0508,4.78516 1.3672,5.46875 1.3672,4.78515 q 2.9052,5.63965 3.4179,10.25391 l 2.0508,4.10156 0.6836,4.10156 q 1.8799,3.93067 3.0762,7.51953 1.3672,3.58887 1.709,6.83594 1.1963,2.22168 1.3672,4.10156 2.7343,5.29786 3.4179,9.57032 l 1.3672,4.78515 q 1.1963,2.05078 1.3672,3.41797 l 1.3672,2.73438 0.6836,2.73437 0.6836,1.36719 1.3672,6.15234 1.3671,2.73438 1.3672,3.41797 0.6836,2.05078 0.6836,2.73437 1.3672,4.10157 q 1.0254,3.58886 2.0508,5.46875 l 0,2.05078 q 0.6836,0.85449 0.6836,2.05078 1.8799,2.90527 2.0508,5.46875 l 4.1015,10.9375 1.3672,-4.78516 2.0508,-4.78515 0,-2.05079 1.3672,-4.10156 3.418,-8.88672 1.3671,-4.78515 2.7344,-8.20313 0.6836,-4.10156 0.6836,-2.05078 2.0508,-4.78516 2.0508,-7.51953 q 2.2216,-4.61426 2.7343,-8.88672 0.8545,-1.87988 1.5381,-3.75976 0.8545,-1.87989 1.1963,-3.75977 l 4.7852,-13.67187 0.6836,-2.73438 1.3672,-4.78516 0.6835,-2.05078 0.6836,-2.73437 0.6836,-2.05078 1.3672,-2.05078 0,-2.05079 q 0.8545,-1.87988 1.5381,-3.75976 0.8545,-1.87988 1.1963,-3.75977 l 3.418,-11.62109 44.4336,0 -0.6836,4.10156 -1.3672,2.05078 q -0.3418,1.87989 -0.6836,2.73438 l -5.4688,17.08984 q -1.3672,4.44336 -2.7343,7.51953 l 0,2.05078 q -0.8545,1.87989 -1.709,3.75977 -0.6836,1.87988 -1.0254,3.75977 l -1.3672,2.73437 -0.6836,3.41797 -0.6836,2.73437 -2.0508,6.15235 q -1.5381,3.41797 -2.0508,5.46875 l -2.0507,4.78515 q -1.1963,7.34864 -4.1016,12.30469 l -4.1016,12.30469 -0.6836,4.78516 -1.3671,2.05078 -0.6836,4.10156 -1.3672,4.10156 -3.418,9.57031 -1.3672,3.41797 -0.6836,2.73438 -2.0508,6.15234 -0.6835,1.36719 q -2.0508,7.86133 -4.1016,12.30469 l -0.6836,3.41797 -0.6836,2.05078 q -3.418,7.17773 -4.1016,12.98828 l -1.3671,3.41797 -1.3672,4.10156 -1.3672,3.41797 -1.3672,4.10156 -2.0508,7.51953 -1.3672,2.73438 q -1.709,7.17773 -4.1015,11.62109 l -0.6836,4.10156 -2.0508,4.78516 -2.0508,7.51953 -3.418,7.519532 -0.6836,2.734375 -0.6836,1.367187 q -5.6396,8.374023 -10.9375,12.988281 -10.2539,4.44336 -20.3369,6.665039 -9.9121,2.22168 -19.9951,2.22168 -15.3808,0 -30.7617,-5.46875 l 2.0508,-11.621094 0.6836,-2.050781 0,-2.050781 q 0.6836,-2.050781 0.8545,-3.930664 0.3418,-1.879883 0.5127,-3.588867 l 0.6836,-2.050777 2.0507,-8.88672 q 13.1592,4.61425 22.7295,4.61425 16.2354,0 22.3877,-13.50097 l 0,-5.46875 -1.3672,-4.78516 q -1.8798,-3.93066 -3.247,-7.51953 -1.1963,-3.58887 -1.5381,-6.83594 l -2.0508,-4.78515 -1.3672,-5.46875 q -2.5635,-4.44336 -2.7344,-8.20313 l -2.0507,-4.78515 -1.3672,-4.10157 -0.6836,-4.10156 -2.0508,-4.10156 -1.3672,-4.78516 -1.3672,-5.46875 -2.0508,-4.78515 -2.0507,-6.83594 -0.6836,-1.36719 -6.1524,-19.14062 q -1.0254,-3.58887 -2.0508,-5.46875 l 0,-2.05079 q -0.3418,-0.34179 -0.5127,-0.51269 -0.1709,-0.3418 -0.1709,-0.6836 l 0,-0.17089 -4.1015,-10.9375 -0.6836,-4.10157 q -2.2217,-4.61425 -3.5889,-8.71582 -1.1963,-4.10156 -1.8799,-7.69043 -1.1963,-2.05078 -1.3672,-3.41796 l -0.6835,-2.73438 q -2.7344,-6.49414 -4.1016,-11.62109 l -0.6836,-1.36719 -1.3672,-6.15234 -1.3672,-2.05079 -0.6836,-2.73437 -2.7343,-8.88672 -0.6836,-1.36719 -5.4688,-17.08984 z"
         id="path4197"
         inkscape:connector-curvature="0" /><path
         d="m 1961.3874,-390.88928 0,71.09375 49.2187,0 0,35.54687 -49.2187,0 0,95.70313 q 0,3.24707 0.1709,5.98144 0.1709,2.56348 0.5127,4.95606 9.9121,8.88671 23.4131,8.88671 9.3994,0 20.3369,-4.10156 l 0.6836,2.05078 0,4.10157 q 0.3418,1.53808 0.5127,3.07617 0.1709,1.36718 0.1709,2.73437 l 0,1.70899 q 0.6836,1.87988 0.8545,3.75976 0.3418,1.70899 0.5127,3.07617 l 2.0507,17.08985 q -10.5957,2.56347 -19.9951,3.93066 -9.2285,1.36719 -17.4316,1.36719 -33.3252,0 -48.0225,-21.7041 l -0.6836,-1.36719 -1.3672,-4.10156 q -1.8798,-4.44336 -2.7343,-8.20313 l 0,-2.05078 q -0.3418,-3.58887 -0.5127,-6.49414 -0.1709,-3.07617 -0.1709,-5.63965 l 0,-104.76074 -32.8125,0 0,-35.54687 32.8125,0 0,-59.47266 2.7344,-1.36719 5.4687,-1.36719 2.0508,-1.36718 3.418,-0.6836 q 0.8544,-0.68359 2.0507,-0.68359 0.8545,-0.68359 2.0508,-0.68359 0.8545,-0.6836 2.0508,-0.6836 l 2.0508,-1.36719 5.4687,-1.36718 q 0.6836,-0.6836 1.1963,-0.6836 l 0.1709,0 q 0.6836,-0.68359 1.1963,-0.68359 l 0.1709,0 10.2539,-4.10156 q 1.3672,1.70898 1.3672,3.41797 z"
         id="path4199"
         inkscape:connector-curvature="0" /><path
         d="m 2035.213,-392.94007 41.6992,0 0,88.86719 q 22.3877,-20.16601 48.3642,-20.16601 3.7598,0 7.5196,0.51269 3.9306,0.3418 7.6904,1.19629 35.7178,9.05762 46.4844,41.01563 l 0.6836,4.78515 q 0.6836,1.87988 0.6836,4.10156 l 0,140.13672 -41.6993,0 0,-121.67968 -1.3671,-5.46875 0,-2.05079 -2.0508,-4.78515 q -2.7344,-4.10156 -3.418,-6.83594 -9.0576,-8.03223 -18.457,-10.9375 -29.2237,0.5127 -41.6992,25.29297 l 0,2.05078 q -0.8545,2.39258 -1.709,4.44336 -0.6836,1.87988 -1.0254,3.75977 l 0,116.21093 -41.6992,0 0,-260.44922 z"
         id="path4201"
         inkscape:connector-curvature="0" /><path
         d="m 2222.5151,-319.11194 41.6992,0 0,186.62109 -41.6992,0 0,-186.62109 z m 45.8008,-54.6875 0,2.22168 q 0,14.18457 -8.8868,23.07129 -9.3994,4.61426 -17.2607,4.61426 -13.6719,0 -21.7041,-14.86817 -1.5381,-5.98144 -1.5381,-10.5957 0,-17.43164 19.3115,-23.58399 l 1.709,0 q 21.7041,0 28.3692,19.14063 z"
         id="path4203"
         inkscape:connector-curvature="0" /><path
         d="m 2456.9853,-286.98303 0,2.05078 q 2.2217,4.10156 2.7344,8.20312 l 0,142.8711 -41.6992,0 0,-120.9961 -0.6836,-4.10156 q -8.545,-25.80567 -28.711,-25.80567 -6.1523,0 -13.6719,2.56348 -17.0898,7.34863 -24.6093,23.24219 l -2.7344,11.62109 0,113.47657 -41.0156,0 0,-186.6211 41.0156,0 0,15.72266 q 19.1406,-17.08985 41.6992,-20.50781 l 3.0762,0 q 45.8008,0 64.5996,38.28125 z"
         id="path4205"
         inkscape:connector-curvature="0" /><path
         d="m 2604.6389,-306.12366 0,-12.98828 41.0156,0 0,190.03906 -0.6836,7.51953 -0.6836,1.36719 -0.6836,4.10156 -2.7344,8.20313 -2.0507,4.10156 -2.7344,4.101563 q -4.9561,8.71582 -11.6211,13.671875 l -2.7344,3.417969 -14.3555,6.835937 q -22.7295,5.639648 -43.9209,5.639648 -38.4521,0 -70.9228,-18.627929 l 1.3672,-2.734375 3.4179,-7.519531 2.7344,-6.835937 0.6836,-2.05078 1.3672,-2.73438 q 2.0508,-5.12695 4.1016,-8.20312 l 1.3672,-4.78516 q 27.5146,14.01367 51.0986,14.01367 21.3623,0 39.8193,-11.27929 l 0.6836,-2.05078 q 4.2725,-5.98145 5.4688,-11.6211 l 0,-28.71094 q -22.0459,16.40625 -45.8008,16.40625 -10.5957,0 -21.875,-3.41796 -37.7686,-14.86817 -47.8516,-50.58594 -2.9053,-9.22852 -4.4433,-18.11524 -1.3672,-8.88672 -1.3672,-17.43164 0,-24.26758 11.9629,-45.80078 19.3115,-35.71777 56.0547,-41.01562 l 2.5634,0 q 29.7364,0 50.7569,17.08984 z m -43.4082,23.92578 -3.0762,0 -15.0391,5.46875 q -16.9189,18.96973 -16.9189,41.52832 0,3.75977 0.5127,7.69043 4.4433,38.79395 41.0156,40.33203 36.4014,-4.61426 36.4014,-44.60449 l 0,-2.56348 q 0,-1.36718 -0.1709,-2.73437 -1.0254,-45.28809 -41.6992,-45.80078 -0.6836,0.68359 -1.0254,0.68359 z"
         id="path4207"
         inkscape:connector-curvature="0" /></g><path
       style="fill:none;fill-rule:evenodd;stroke:#000000;stroke-width:43.13274765;stroke-linecap:butt;stroke-linejoin:miter;stroke-miterlimit:4;stroke-dasharray:none;stroke-opacity:1"
       d="m 94.812809,22.009656 2563.636391,0"
       id="path4366"
       inkscape:connector-curvature="0" /></g></svg>